<?xml version="1.0" encoding="UTF-8"?>
<svg width="240px" height="204px" viewBox="0 0 240 204" version="1.1" xmlns="http://www.w3.org/2000/svg" xmlns:xlink="http://www.w3.org/1999/xlink">
    <title>coffeeCupFit</title>
    <defs>
        <filter x="-16.7%" y="-21.1%" width="133.5%" height="142.2%" filterUnits="objectBoundingBox" id="filter-1">
            <feGaussianBlur stdDeviation="10" in="SourceGraphic"></feGaussianBlur>
        </filter>
        <ellipse id="path-2" cx="82.1852461" cy="80.3636364" rx="80.1852461" ry="80.3636364"></ellipse>
        <path d="M146.24143,128.712152 C156.994138,112.1112 162.370492,95.9950284 162.370492,80.3636364 C162.370492,35.980434 126.470105,3.55548924e-14 82.1852461,3.55548924e-14 C65.6269103,3.55548924e-14 50.5695997,4.65201797 37.0133144,13.9560539 C71.1995189,17.3748924 97.0442574,28.2788641 114.54753,46.6679688 C132.050802,65.0570734 142.615436,92.4051345 146.24143,128.712152 Z" id="path-4"></path>
        <ellipse id="path-6" cx="109" cy="80.5" rx="80" ry="80.5"></ellipse>
    </defs>
    <g id="coffeeCupFit" stroke="none" stroke-width="1" fill="none" fill-rule="evenodd">
        <g id="coffeeCup" transform="translate(3.000000, 10.000000)">
            <circle id="shadow" fill="#14151D" opacity="0.3" cx="77.5" cy="114.5" r="77.5"></circle>
            <g id="coffee" transform="translate(27.000000, 0.000000)">
                <path d="M71.2056628,55.1101316 L112.350064,62.6639753 C124.364533,64.8697532 135.398172,70.7502717 143.92819,79.4939382 L176.429285,112.80908 L176.429285,112.80908 C198.214999,115.738787 206.793249,119.480216 202.164035,124.033365 C197.534821,128.586514 180.224712,129.886427 150.233708,127.933104 L143.869808,154.539296 C137.92725,179.383942 115.664487,196.869403 90.1192829,196.755653 C64.5776492,196.641918 42.4781906,178.952848 36.7735816,154.056153 L25.1306135,103.242605 C20.2113366,81.7733455 33.6277488,60.3812098 55.0970087,55.461933 C60.3866986,54.2499001 65.8681018,54.1301902 71.2056628,55.1101316 Z" id="shadow" fill="#242424" fill-rule="nonzero" opacity="0.3" filter="url(#filter-1)" transform="translate(113.747685, 125.605369) rotate(30.000000) translate(-113.747685, -125.605369) "></path>
                <path d="M146.492483,139.748804 C141.002619,135.643068 139.882066,127.86631 143.98966,122.378928 C148.097254,116.891546 155.877532,115.7715 161.367397,119.877236 L197.047913,146.561824 C202.537778,150.66756 203.65833,158.444318 199.550736,163.9317 C195.443142,169.419082 187.662865,170.539128 182.173,166.433392 L146.492483,139.748804 Z" id="Line-3" fill="#8D8F98" fill-rule="nonzero"></path>
                <mask id="mask-3" fill="white">
                    <use xlink:href="#path-2"></use>
                </mask>
                <ellipse stroke="#242424" stroke-width="6" cx="82.1852461" cy="80.3636364" rx="83.1852461" ry="83.3636364"></ellipse>
                <rect fill="#14151D" mask="url(#mask-3)" transform="translate(80.650600, 80.363636) scale(-1, 1) translate(-80.650600, -80.363636) " x="-4.90590636" y="0" width="171.113013" height="160.727273"></rect>
                <mask id="mask-5" fill="white">
                    <use xlink:href="#path-4"></use>
                </mask>
                <use id="Mask" fill="#9B9B9B" opacity="0.2" xlink:href="#path-4"></use>
            </g>
            <g id="cup_border" stroke-linejoin="round">
                <ellipse stroke="#8D8F98" stroke-width="7" cx="109" cy="80.5" rx="83.5" ry="84"></ellipse>
                <use stroke-opacity="0.6" stroke="#979797" stroke-width="2" xlink:href="#path-6"></use>
            </g>
            <path d="M186.147956,144.726457 L216.199786,144.726457 C217.311668,144.726457 218.213026,145.627816 218.213026,146.739698 C218.213026,146.934353 218.184796,147.127979 218.129216,147.314531 C217.656331,148.901774 216.330398,150.087775 214.700453,150.381442 L187.205138,155.335267 C184.759238,155.775944 182.419205,154.15039 181.978528,151.70449 C181.971838,151.667361 181.965616,151.630149 181.959862,151.592863 L181.700596,149.912748 C181.321569,147.456539 183.005457,145.158126 185.461665,144.779098 C185.688749,144.744056 185.918184,144.726457 186.147956,144.726457 Z" id="Rectangle-2" fill="#E3E5ED" fill-rule="nonzero" opacity="0.5" transform="translate(199.930173, 150.066901) rotate(36.000000) translate(-199.930173, -150.066901) "></path>
        </g>
    </g>
</svg>