<?xml version="1.0" encoding="UTF-8"?>
<svg width="375px" height="430px" viewBox="0 0 375 430" version="1.1" xmlns="http://www.w3.org/2000/svg" xmlns:xlink="http://www.w3.org/1999/xlink">
    <title>emptyNotes</title>
    <defs>
        <filter x="-16.7%" y="-21.1%" width="133.5%" height="142.2%" filterUnits="objectBoundingBox" id="filter-1">
            <feGaussianBlur stdDeviation="10" in="SourceGraphic"></feGaussianBlur>
        </filter>
        <ellipse id="path-2" cx="82.1852461" cy="80.3636364" rx="80.1852461" ry="80.3636364"></ellipse>
        <path d="M146.24143,128.712152 C156.994138,112.1112 162.370492,95.9950284 162.370492,80.3636364 C162.370492,35.980434 126.470105,3.55548924e-14 82.1852461,3.55548924e-14 C65.6269103,3.55548924e-14 50.5695997,4.65201797 37.0133144,13.9560539 C71.1995189,17.3748924 97.0442574,28.2788641 114.54753,46.6679688 C132.050802,65.0570734 142.615436,92.4051345 146.24143,128.712152 Z" id="path-4"></path>
        <ellipse id="path-6" cx="109" cy="80.5" rx="80" ry="80.5"></ellipse>
        <rect id="path-7" x="0" y="0" width="230" height="50" rx="8"></rect>
        <filter x="-5.0%" y="-19.0%" width="110.0%" height="146.0%" filterUnits="objectBoundingBox" id="filter-8">
            <feOffset dx="0" dy="2" in="SourceAlpha" result="shadowOffsetOuter1"></feOffset>
            <feGaussianBlur stdDeviation="3.5" in="shadowOffsetOuter1" result="shadowBlurOuter1"></feGaussianBlur>
            <feColorMatrix values="0 0 0 0 0.141176471   0 0 0 0 0.141176471   0 0 0 0 0.141176471  0 0 0 0.2 0" type="matrix" in="shadowBlurOuter1"></feColorMatrix>
        </filter>
    </defs>
    <g id="coffee_app" stroke="none" stroke-width="1" fill="none" fill-rule="evenodd">
        <g id="coffee_2.0" transform="translate(0.000000, -115.000000)">
            <g id="emptyNotes" transform="translate(0.000000, 115.000000)">
                <rect id="Rectangle" fill="#D8D8D8" opacity="0" x="0" y="0" width="375" height="430"></rect>
                <g id="coffeeCup" transform="translate(67.000000, 69.000000)">
                    <circle id="shadow" fill="#14151D" opacity="0.3" cx="77.5" cy="114.5" r="77.5"></circle>
                    <g id="coffee" transform="translate(27.000000, 0.000000)">
                        <path d="M71.2056628,55.1101316 L112.350064,62.6639753 C124.364533,64.8697532 135.398172,70.7502717 143.92819,79.4939382 L176.429285,112.80908 L176.429285,112.80908 C198.214999,115.738787 206.793249,119.480216 202.164035,124.033365 C197.534821,128.586514 180.224712,129.886427 150.233708,127.933104 L143.869808,154.539296 C137.92725,179.383942 115.664487,196.869403 90.1192829,196.755653 C64.5776492,196.641918 42.4781906,178.952848 36.7735816,154.056153 L25.1306135,103.242605 C20.2113366,81.7733455 33.6277488,60.3812098 55.0970087,55.461933 C60.3866986,54.2499001 65.8681018,54.1301902 71.2056628,55.1101316 Z" id="shadow" fill="#242424" fill-rule="nonzero" opacity="0.3" filter="url(#filter-1)" transform="translate(113.747685, 125.605369) rotate(30.000000) translate(-113.747685, -125.605369) "></path>
                        <path d="M146.492483,139.748804 C141.002619,135.643068 139.882066,127.86631 143.98966,122.378928 C148.097254,116.891546 155.877532,115.7715 161.367397,119.877236 L197.047913,146.561824 C202.537778,150.66756 203.65833,158.444318 199.550736,163.9317 C195.443142,169.419082 187.662865,170.539128 182.173,166.433392 L146.492483,139.748804 Z" id="Line-3" fill="#8D8F98" fill-rule="nonzero"></path>
                        <mask id="mask-3" fill="white">
                            <use xlink:href="#path-2"></use>
                        </mask>
                        <ellipse stroke="#242424" stroke-width="6" cx="82.1852461" cy="80.3636364" rx="83.1852461" ry="83.3636364"></ellipse>
                        <rect fill="#14151D" mask="url(#mask-3)" transform="translate(80.650600, 80.363636) scale(-1, 1) translate(-80.650600, -80.363636) " x="-4.90590636" y="0" width="171.113013" height="160.727273"></rect>
                        <mask id="mask-5" fill="white">
                            <use xlink:href="#path-4"></use>
                        </mask>
                        <use id="Mask" fill="#9B9B9B" opacity="0.2" xlink:href="#path-4"></use>
                    </g>
                    <g id="cup_border" stroke-linejoin="round">
                        <ellipse stroke="#8D8F98" stroke-width="7" cx="109" cy="80.5" rx="83.5" ry="84"></ellipse>
                        <use stroke-opacity="0.6" stroke="#979797" stroke-width="2" xlink:href="#path-6"></use>
                    </g>
                    <path d="M186.147956,144.726457 L216.199786,144.726457 C217.311668,144.726457 218.213026,145.627816 218.213026,146.739698 C218.213026,146.934353 218.184796,147.127979 218.129216,147.314531 C217.656331,148.901774 216.330398,150.087775 214.700453,150.381442 L187.205138,155.335267 C184.759238,155.775944 182.419205,154.15039 181.978528,151.70449 C181.971838,151.667361 181.965616,151.630149 181.959862,151.592863 L181.700596,149.912748 C181.321569,147.456539 183.005457,145.158126 185.461665,144.779098 C185.688749,144.744056 185.918184,144.726457 186.147956,144.726457 Z" id="Rectangle-2" fill="#E3E5ED" fill-rule="nonzero" opacity="0.5" transform="translate(199.930173, 150.066901) rotate(36.000000) translate(-199.930173, -150.066901) "></path>
                </g>
                <path d="M32.413,321.168 C33.561,321.168 34.499,320.892667 35.227,320.342 C35.955,319.791333 36.417,319.030667 36.613,318.06 L36.613,318.06 L34.961,318.06 C34.8303333,318.610667 34.5503333,319.044667 34.121,319.362 C33.6916667,319.679333 33.1176667,319.838 32.399,319.838 C31.419,319.838 30.6443333,319.506667 30.075,318.844 C29.5056667,318.181333 29.221,317.271333 29.221,316.114 C29.221,314.947333 29.5056667,314.030333 30.075,313.363 C30.6443333,312.695667 31.419,312.362 32.399,312.362 C33.1176667,312.362 33.6916667,312.53 34.121,312.866 C34.5503333,313.202 34.8303333,313.654667 34.961,314.224 L34.961,314.224 L36.613,314.224 C36.417,313.216 35.955,312.432 35.227,311.872 C34.499,311.312 33.561,311.032 32.413,311.032 C31.4423333,311.032 30.6046667,311.246667 29.9,311.676 C29.1953333,312.105333 28.6516667,312.700333 28.269,313.461 C27.8863333,314.221667 27.695,315.106 27.695,316.114 C27.695,317.112667 27.8863333,317.992333 28.269,318.753 C28.6516667,319.513667 29.1953333,320.106333 29.9,320.531 C30.6046667,320.955667 31.4423333,321.168 32.413,321.168 Z M41.693,321.168 C42.3556667,321.168 42.953,321.016333 43.485,320.713 C44.017,320.409667 44.4393333,319.985 44.752,319.439 C45.0646667,318.893 45.221,318.256 45.221,317.528 C45.221,316.8 45.0646667,316.163 44.752,315.617 C44.4393333,315.071 44.0193333,314.646333 43.492,314.343 C42.9646667,314.039667 42.3696667,313.888 41.707,313.888 C41.0536667,313.888 40.461,314.039667 39.929,314.343 C39.397,314.646333 38.9746667,315.071 38.662,315.617 C38.3493333,316.163 38.193,316.8 38.193,317.528 C38.193,318.256 38.347,318.893 38.655,319.439 C38.963,319.985 39.3806667,320.409667 39.908,320.713 C40.4353333,321.016333 41.0303333,321.168 41.693,321.168 Z M41.693,319.894 C41.3383333,319.894 41.0116667,319.805333 40.713,319.628 C40.4143333,319.450667 40.1716667,319.187 39.985,318.837 C39.7983333,318.487 39.705,318.050667 39.705,317.528 C39.705,317.005333 39.7983333,316.569 39.985,316.219 C40.1716667,315.869 40.4166667,315.605333 40.72,315.428 C41.0233333,315.250667 41.3523333,315.162 41.707,315.162 C42.0616667,315.162 42.3906667,315.250667 42.694,315.428 C42.9973333,315.605333 43.24,315.869 43.422,316.219 C43.604,316.569 43.695,317.005333 43.695,317.528 C43.695,318.050667 43.6016667,318.487 43.415,318.837 C43.2283333,319.187 42.9833333,319.450667 42.68,319.628 C42.3766667,319.805333 42.0476667,319.894 41.693,319.894 Z M48.915,321 L48.915,315.302 L50.511,315.302 L50.511,314.056 L48.915,314.056 L48.915,313.062 C48.915,312.744667 48.985,312.518333 49.125,312.383 C49.265,312.247667 49.4983333,312.18 49.825,312.18 L49.825,312.18 L50.329,312.18 L50.329,310.92 L49.601,310.92 C48.9103333,310.92 48.376,311.085667 47.998,311.417 C47.62,311.748333 47.431,312.292 47.431,313.048 L47.431,313.048 L47.431,314.056 L46.437,314.056 L46.437,315.302 L47.431,315.302 L47.431,321 L48.915,321 Z M54.009,321 L54.009,315.302 L55.605,315.302 L55.605,314.056 L54.009,314.056 L54.009,313.062 C54.009,312.744667 54.079,312.518333 54.219,312.383 C54.359,312.247667 54.5923333,312.18 54.919,312.18 L54.919,312.18 L55.423,312.18 L55.423,310.92 L54.695,310.92 C54.0043333,310.92 53.47,311.085667 53.092,311.417 C52.714,311.748333 52.525,312.292 52.525,313.048 L52.525,313.048 L52.525,314.056 L51.531,314.056 L51.531,315.302 L52.525,315.302 L52.525,321 L54.009,321 Z M60.237,321.168 C61.0583333,321.168 61.7466667,320.948667 62.302,320.51 C62.8573333,320.071333 63.2283333,319.525333 63.415,318.872 L63.415,318.872 L61.931,318.872 C61.791,319.198667 61.5786667,319.457667 61.294,319.649 C61.0093333,319.840333 60.657,319.936 60.237,319.936 C59.7143333,319.936 59.2546667,319.761 58.858,319.411 C58.4613333,319.061 58.2396667,318.55 58.193,317.878 L58.193,317.878 L63.597,317.878 C63.6063333,317.747333 63.6133333,317.628333 63.618,317.521 C63.6226667,317.413667 63.625,317.313333 63.625,317.22 C63.625,316.613333 63.485,316.058 63.205,315.554 C62.925,315.05 62.533,314.646333 62.029,314.343 C61.525,314.039667 60.9323333,313.888 60.251,313.888 C59.551,313.888 58.9373333,314.042 58.41,314.35 C57.8826667,314.658 57.472,315.087333 57.178,315.638 C56.884,316.188667 56.737,316.828 56.737,317.556 C56.737,318.274667 56.8863333,318.904667 57.185,319.446 C57.4836667,319.987333 57.8966667,320.409667 58.424,320.713 C58.9513333,321.016333 59.5556667,321.168 60.237,321.168 Z M62.141,316.87 L58.221,316.87 C58.305,316.282 58.5383333,315.841 58.921,315.547 C59.3036667,315.253 59.7423333,315.106 60.237,315.106 C60.769,315.106 61.2123333,315.264667 61.567,315.582 C61.9216667,315.899333 62.113,316.328667 62.141,316.87 L62.141,316.87 Z M68.663,321.168 C69.4843333,321.168 70.1726667,320.948667 70.728,320.51 C71.2833333,320.071333 71.6543333,319.525333 71.841,318.872 L71.841,318.872 L70.357,318.872 C70.217,319.198667 70.0046667,319.457667 69.72,319.649 C69.4353333,319.840333 69.083,319.936 68.663,319.936 C68.1403333,319.936 67.6806667,319.761 67.284,319.411 C66.8873333,319.061 66.6656667,318.55 66.619,317.878 L66.619,317.878 L72.023,317.878 C72.0323333,317.747333 72.0393333,317.628333 72.044,317.521 C72.0486667,317.413667 72.051,317.313333 72.051,317.22 C72.051,316.613333 71.911,316.058 71.631,315.554 C71.351,315.05 70.959,314.646333 70.455,314.343 C69.951,314.039667 69.3583333,313.888 68.677,313.888 C67.977,313.888 67.3633333,314.042 66.836,314.35 C66.3086667,314.658 65.898,315.087333 65.604,315.638 C65.31,316.188667 65.163,316.828 65.163,317.556 C65.163,318.274667 65.3123333,318.904667 65.611,319.446 C65.9096667,319.987333 66.3226667,320.409667 66.85,320.713 C67.3773333,321.016333 67.9816667,321.168 68.663,321.168 Z M70.567,316.87 L66.647,316.87 C66.731,316.282 66.9643333,315.841 67.347,315.547 C67.7296667,315.253 68.1683333,315.106 68.663,315.106 C69.195,315.106 69.6383333,315.264667 69.993,315.582 C70.3476667,315.899333 70.539,316.328667 70.567,316.87 L70.567,316.87 Z M79.159,321 L79.159,313.622 L84.073,321 L85.557,321 L85.557,311.2 L84.073,311.2 L84.073,318.578 L79.159,311.2 L77.675,311.2 L77.675,321 L79.159,321 Z M90.987,321.168 C91.6496667,321.168 92.247,321.016333 92.779,320.713 C93.311,320.409667 93.7333333,319.985 94.046,319.439 C94.3586667,318.893 94.515,318.256 94.515,317.528 C94.515,316.8 94.3586667,316.163 94.046,315.617 C93.7333333,315.071 93.3133333,314.646333 92.786,314.343 C92.2586667,314.039667 91.6636667,313.888 91.001,313.888 C90.3476667,313.888 89.755,314.039667 89.223,314.343 C88.691,314.646333 88.2686667,315.071 87.956,315.617 C87.6433333,316.163 87.487,316.8 87.487,317.528 C87.487,318.256 87.641,318.893 87.949,319.439 C88.257,319.985 88.6746667,320.409667 89.202,320.713 C89.7293333,321.016333 90.3243333,321.168 90.987,321.168 Z M90.987,319.894 C90.6323333,319.894 90.3056667,319.805333 90.007,319.628 C89.7083333,319.450667 89.4656667,319.187 89.279,318.837 C89.0923333,318.487 88.999,318.050667 88.999,317.528 C88.999,317.005333 89.0923333,316.569 89.279,316.219 C89.4656667,315.869 89.7106667,315.605333 90.014,315.428 C90.3173333,315.250667 90.6463333,315.162 91.001,315.162 C91.3556667,315.162 91.6846667,315.250667 91.988,315.428 C92.2913333,315.605333 92.534,315.869 92.716,316.219 C92.898,316.569 92.989,317.005333 92.989,317.528 C92.989,318.050667 92.8956667,318.487 92.709,318.837 C92.5223333,319.187 92.2773333,319.450667 91.974,319.628 C91.6706667,319.805333 91.3416667,319.894 90.987,319.894 Z M100.155,321 L100.155,319.74 L99.357,319.74 C98.9556667,319.74 98.6733333,319.667667 98.51,319.523 C98.3466667,319.378333 98.265,319.114667 98.265,318.732 L98.265,318.732 L98.265,315.302 L100.225,315.302 L100.225,314.056 L98.265,314.056 L98.265,312.292 L96.963,312.292 L96.781,314.056 L95.591,314.056 L95.591,315.302 L96.781,315.302 L96.781,318.732 C96.781,319.581333 96.9816667,320.171667 97.383,320.503 C97.7843333,320.834333 98.3256667,321 99.007,321 L99.007,321 L100.155,321 Z M105.067,321.168 C105.888333,321.168 106.576667,320.948667 107.132,320.51 C107.687333,320.071333 108.058333,319.525333 108.245,318.872 L108.245,318.872 L106.761,318.872 C106.621,319.198667 106.408667,319.457667 106.124,319.649 C105.839333,319.840333 105.487,319.936 105.067,319.936 C104.544333,319.936 104.084667,319.761 103.688,319.411 C103.291333,319.061 103.069667,318.55 103.023,317.878 L103.023,317.878 L108.427,317.878 C108.436333,317.747333 108.443333,317.628333 108.448,317.521 C108.452667,317.413667 108.455,317.313333 108.455,317.22 C108.455,316.613333 108.315,316.058 108.035,315.554 C107.755,315.05 107.363,314.646333 106.859,314.343 C106.355,314.039667 105.762333,313.888 105.081,313.888 C104.381,313.888 103.767333,314.042 103.24,314.35 C102.712667,314.658 102.302,315.087333 102.008,315.638 C101.714,316.188667 101.567,316.828 101.567,317.556 C101.567,318.274667 101.716333,318.904667 102.015,319.446 C102.313667,319.987333 102.726667,320.409667 103.254,320.713 C103.781333,321.016333 104.385667,321.168 105.067,321.168 Z M106.971,316.87 L103.051,316.87 C103.135,316.282 103.368333,315.841 103.751,315.547 C104.133667,315.253 104.572333,315.106 105.067,315.106 C105.599,315.106 106.042333,315.264667 106.397,315.582 C106.751667,315.899333 106.943,316.328667 106.971,316.87 L106.971,316.87 Z M113.017,321.168 C113.875667,321.168 114.554667,320.958 115.054,320.538 C115.553333,320.118 115.798333,319.590667 115.789,318.956 C115.789,318.452 115.667667,318.069333 115.425,317.808 C115.182333,317.546667 114.862667,317.348333 114.466,317.213 C114.069333,317.077667 113.637667,316.958667 113.171,316.856 C112.704333,316.744 112.328667,316.618 112.044,316.478 C111.759333,316.338 111.617,316.146667 111.617,315.904 C111.617,315.661333 111.719667,315.463 111.925,315.309 C112.130333,315.155 112.419667,315.078 112.793,315.078 C113.175667,315.078 113.481333,315.162 113.71,315.33 C113.938667,315.498 114.076333,315.731333 114.123,316.03 L114.123,316.03 L115.551,316.03 C115.467,315.348667 115.184667,314.821333 114.704,314.448 C114.223333,314.074667 113.595667,313.888 112.821,313.888 C111.981,313.888 111.327667,314.091 110.861,314.497 C110.394333,314.903 110.161,315.409333 110.161,316.016 C110.161,316.454667 110.289333,316.802333 110.546,317.059 C110.802667,317.315667 111.124667,317.514 111.512,317.654 C111.899333,317.794 112.289,317.906 112.681,317.99 C113.185,318.092667 113.579333,318.207 113.864,318.333 C114.148667,318.459 114.291,318.699333 114.291,319.054 C114.291,319.296667 114.188333,319.511333 113.983,319.698 C113.777667,319.884667 113.451,319.978 113.003,319.978 C112.545667,319.978 112.177,319.863667 111.897,319.635 C111.617,319.406333 111.439667,319.133333 111.365,318.816 L111.365,318.816 L109.867,318.816 C109.951,319.525333 110.277667,320.094667 110.847,320.524 C111.416333,320.953333 112.139667,321.168 113.017,321.168 Z M122.281,312.74 C122.561,312.74 122.792,312.653667 122.974,312.481 C123.156,312.308333 123.247,312.091333 123.247,311.83 C123.247,311.568667 123.156,311.351667 122.974,311.179 C122.792,311.006333 122.561,310.92 122.281,310.92 C122.001,310.92 121.77,311.006333 121.588,311.179 C121.406,311.351667 121.315,311.568667 121.315,311.83 C121.315,312.091333 121.406,312.308333 121.588,312.481 C121.77,312.653667 122.001,312.74 122.281,312.74 Z M123.023,321 L123.023,314.056 L121.539,314.056 L121.539,321 L123.023,321 Z M128.005,321.168 C128.863667,321.168 129.542667,320.958 130.042,320.538 C130.541333,320.118 130.786333,319.590667 130.777,318.956 C130.777,318.452 130.655667,318.069333 130.413,317.808 C130.170333,317.546667 129.850667,317.348333 129.454,317.213 C129.057333,317.077667 128.625667,316.958667 128.159,316.856 C127.692333,316.744 127.316667,316.618 127.032,316.478 C126.747333,316.338 126.605,316.146667 126.605,315.904 C126.605,315.661333 126.707667,315.463 126.913,315.309 C127.118333,315.155 127.407667,315.078 127.781,315.078 C128.163667,315.078 128.469333,315.162 128.698,315.33 C128.926667,315.498 129.064333,315.731333 129.111,316.03 L129.111,316.03 L130.539,316.03 C130.455,315.348667 130.172667,314.821333 129.692,314.448 C129.211333,314.074667 128.583667,313.888 127.809,313.888 C126.969,313.888 126.315667,314.091 125.849,314.497 C125.382333,314.903 125.149,315.409333 125.149,316.016 C125.149,316.454667 125.277333,316.802333 125.534,317.059 C125.790667,317.315667 126.112667,317.514 126.5,317.654 C126.887333,317.794 127.277,317.906 127.669,317.99 C128.173,318.092667 128.567333,318.207 128.852,318.333 C129.136667,318.459 129.279,318.699333 129.279,319.054 C129.279,319.296667 129.176333,319.511333 128.971,319.698 C128.765667,319.884667 128.439,319.978 127.991,319.978 C127.533667,319.978 127.165,319.863667 126.885,319.635 C126.605,319.406333 126.427667,319.133333 126.353,318.816 L126.353,318.816 L124.855,318.816 C124.939,319.525333 125.265667,320.094667 125.835,320.524 C126.404333,320.953333 127.127667,321.168 128.005,321.168 Z M138.781,321.168 C139.387667,321.168 139.877667,321.037333 140.251,320.776 C140.624333,320.514667 140.909,320.192667 141.105,319.81 L141.105,319.81 L141.231,321 L142.519,321 L142.519,316.73 C142.519,315.852667 142.253,315.159667 141.721,314.651 C141.189,314.142333 140.437667,313.888 139.467,313.888 C138.925667,313.888 138.428667,313.983667 137.976,314.175 C137.523333,314.366333 137.15,314.641667 136.856,315.001 C136.562,315.360333 136.391667,315.792 136.345,316.296 L136.345,316.296 L137.829,316.296 C137.894333,315.904 138.078667,315.607667 138.382,315.407 C138.685333,315.206333 139.042333,315.106 139.453,315.106 C139.919667,315.106 140.3,315.241333 140.594,315.512 C140.888,315.782667 141.035,316.188667 141.035,316.73 L141.035,316.73 L141.035,316.856 L139.215,316.856 C138.244333,316.856 137.497667,317.052 136.975,317.444 C136.452333,317.836 136.191,318.368 136.191,319.04 C136.191,319.422667 136.284333,319.775 136.471,320.097 C136.657667,320.419 136.942333,320.678 137.325,320.874 C137.707667,321.07 138.193,321.168 138.781,321.168 Z M139.075,319.964 C138.664333,319.964 138.34,319.873 138.102,319.691 C137.864,319.509 137.745,319.259333 137.745,318.942 C137.745,318.634 137.868667,318.377333 138.116,318.172 C138.363333,317.966667 138.781,317.864 139.369,317.864 L139.369,317.864 L141.021,317.864 C140.983667,318.246667 140.888,318.596667 140.734,318.914 C140.58,319.231333 140.365333,319.485667 140.09,319.677 C139.814667,319.868333 139.476333,319.964 139.075,319.964 Z M151.055,321.168 C151.913667,321.168 152.592667,320.958 153.092,320.538 C153.591333,320.118 153.836333,319.590667 153.827,318.956 C153.827,318.452 153.705667,318.069333 153.463,317.808 C153.220333,317.546667 152.900667,317.348333 152.504,317.213 C152.107333,317.077667 151.675667,316.958667 151.209,316.856 C150.742333,316.744 150.366667,316.618 150.082,316.478 C149.797333,316.338 149.655,316.146667 149.655,315.904 C149.655,315.661333 149.757667,315.463 149.963,315.309 C150.168333,315.155 150.457667,315.078 150.831,315.078 C151.213667,315.078 151.519333,315.162 151.748,315.33 C151.976667,315.498 152.114333,315.731333 152.161,316.03 L152.161,316.03 L153.589,316.03 C153.505,315.348667 153.222667,314.821333 152.742,314.448 C152.261333,314.074667 151.633667,313.888 150.859,313.888 C150.019,313.888 149.365667,314.091 148.899,314.497 C148.432333,314.903 148.199,315.409333 148.199,316.016 C148.199,316.454667 148.327333,316.802333 148.584,317.059 C148.840667,317.315667 149.162667,317.514 149.55,317.654 C149.937333,317.794 150.327,317.906 150.719,317.99 C151.223,318.092667 151.617333,318.207 151.902,318.333 C152.186667,318.459 152.329,318.699333 152.329,319.054 C152.329,319.296667 152.226333,319.511333 152.021,319.698 C151.815667,319.884667 151.489,319.978 151.041,319.978 C150.583667,319.978 150.215,319.863667 149.935,319.635 C149.655,319.406333 149.477667,319.133333 149.403,318.816 L149.403,318.816 L147.905,318.816 C147.989,319.525333 148.315667,320.094667 148.885,320.524 C149.454333,320.953333 150.177667,321.168 151.055,321.168 Z M156.541,312.74 C156.821,312.74 157.052,312.653667 157.234,312.481 C157.416,312.308333 157.507,312.091333 157.507,311.83 C157.507,311.568667 157.416,311.351667 157.234,311.179 C157.052,311.006333 156.821,310.92 156.541,310.92 C156.261,310.92 156.03,311.006333 155.848,311.179 C155.666,311.351667 155.575,311.568667 155.575,311.83 C155.575,312.091333 155.666,312.308333 155.848,312.481 C156.03,312.653667 156.261,312.74 156.541,312.74 Z M157.283,321 L157.283,314.056 L155.799,314.056 L155.799,321 L157.283,321 Z M160.977,321 L160.977,317.416 C160.977,316.688 161.142667,316.128 161.474,315.736 C161.805333,315.344 162.227667,315.148 162.741,315.148 C163.777,315.148 164.295,315.82 164.295,317.164 L164.295,317.164 L164.295,321 L165.779,321 L165.779,317.416 C165.779,316.688 165.944667,316.128 166.276,315.736 C166.607333,315.344 167.034333,315.148 167.557,315.148 C168.583667,315.148 169.097,315.82 169.097,317.164 L169.097,317.164 L169.097,321 L170.581,321 L170.581,317.01 C170.581,315.974 170.333667,315.194667 169.839,314.672 C169.344333,314.149333 168.663,313.888 167.795,313.888 C167.300333,313.888 166.840667,314.004667 166.416,314.238 C165.991333,314.471333 165.653,314.788667 165.401,315.19 C164.971667,314.322 164.206333,313.888 163.105,313.888 C162.619667,313.888 162.192667,313.990667 161.824,314.196 C161.455333,314.401333 161.159,314.681333 160.935,315.036 L160.935,315.036 L160.809,314.056 L159.493,314.056 L159.493,321 L160.977,321 Z M174.051,324.08 L174.051,319.936 C174.293667,320.328 174.622667,320.631333 175.038,320.846 C175.453333,321.060667 175.931667,321.168 176.473,321.168 C177.154333,321.168 177.751667,321.011667 178.265,320.699 C178.778333,320.386333 179.182,319.957 179.476,319.411 C179.77,318.865 179.917,318.242 179.917,317.542 C179.917,316.842 179.77,316.216667 179.476,315.666 C179.182,315.115333 178.778333,314.681333 178.265,314.364 C177.751667,314.046667 177.159,313.888 176.487,313.888 C175.871,313.888 175.367,314.014 174.975,314.266 C174.583,314.518 174.275,314.807333 174.051,315.134 L174.051,315.134 L173.897,314.056 L172.567,314.056 L172.567,324.08 L174.051,324.08 Z M176.221,319.88 C175.586333,319.88 175.066,319.663 174.66,319.229 C174.254,318.795 174.051,318.228 174.051,317.528 C174.051,316.837333 174.254,316.272667 174.66,315.834 C175.066,315.395333 175.586333,315.176 176.221,315.176 C176.650333,315.176 177.028333,315.276333 177.355,315.477 C177.681667,315.677667 177.938333,315.955333 178.125,316.31 C178.311667,316.664667 178.405,317.070667 178.405,317.528 C178.405,318.228 178.199667,318.795 177.789,319.229 C177.378333,319.663 176.855667,319.88 176.221,319.88 Z M183.261,321 L183.261,310.92 L181.777,310.92 L181.777,321 L183.261,321 Z M188.635,321.168 C189.456333,321.168 190.144667,320.948667 190.7,320.51 C191.255333,320.071333 191.626333,319.525333 191.813,318.872 L191.813,318.872 L190.329,318.872 C190.189,319.198667 189.976667,319.457667 189.692,319.649 C189.407333,319.840333 189.055,319.936 188.635,319.936 C188.112333,319.936 187.652667,319.761 187.256,319.411 C186.859333,319.061 186.637667,318.55 186.591,317.878 L186.591,317.878 L191.995,317.878 C192.004333,317.747333 192.011333,317.628333 192.016,317.521 C192.020667,317.413667 192.023,317.313333 192.023,317.22 C192.023,316.613333 191.883,316.058 191.603,315.554 C191.323,315.05 190.931,314.646333 190.427,314.343 C189.923,314.039667 189.330333,313.888 188.649,313.888 C187.949,313.888 187.335333,314.042 186.808,314.35 C186.280667,314.658 185.87,315.087333 185.576,315.638 C185.282,316.188667 185.135,316.828 185.135,317.556 C185.135,318.274667 185.284333,318.904667 185.583,319.446 C185.881667,319.987333 186.294667,320.409667 186.822,320.713 C187.349333,321.016333 187.953667,321.168 188.635,321.168 Z M190.539,316.87 L186.619,316.87 C186.703,316.282 186.936333,315.841 187.319,315.547 C187.701667,315.253 188.140333,315.106 188.635,315.106 C189.167,315.106 189.610333,315.264667 189.965,315.582 C190.319667,315.899333 190.511,316.328667 190.539,316.87 L190.539,316.87 Z M199.943,321.168 C200.549667,321.168 201.039667,321.037333 201.413,320.776 C201.786333,320.514667 202.071,320.192667 202.267,319.81 L202.267,319.81 L202.393,321 L203.681,321 L203.681,316.73 C203.681,315.852667 203.415,315.159667 202.883,314.651 C202.351,314.142333 201.599667,313.888 200.629,313.888 C200.087667,313.888 199.590667,313.983667 199.138,314.175 C198.685333,314.366333 198.312,314.641667 198.018,315.001 C197.724,315.360333 197.553667,315.792 197.507,316.296 L197.507,316.296 L198.991,316.296 C199.056333,315.904 199.240667,315.607667 199.544,315.407 C199.847333,315.206333 200.204333,315.106 200.615,315.106 C201.081667,315.106 201.462,315.241333 201.756,315.512 C202.05,315.782667 202.197,316.188667 202.197,316.73 L202.197,316.73 L202.197,316.856 L200.377,316.856 C199.406333,316.856 198.659667,317.052 198.137,317.444 C197.614333,317.836 197.353,318.368 197.353,319.04 C197.353,319.422667 197.446333,319.775 197.633,320.097 C197.819667,320.419 198.104333,320.678 198.487,320.874 C198.869667,321.07 199.355,321.168 199.943,321.168 Z M200.237,319.964 C199.826333,319.964 199.502,319.873 199.264,319.691 C199.026,319.509 198.907,319.259333 198.907,318.942 C198.907,318.634 199.030667,318.377333 199.278,318.172 C199.525333,317.966667 199.943,317.864 200.531,317.864 L200.531,317.864 L202.183,317.864 C202.145667,318.246667 202.05,318.596667 201.896,318.914 C201.742,319.231333 201.527333,319.485667 201.252,319.677 C200.976667,319.868333 200.638333,319.964 200.237,319.964 Z M207.151,324.08 L207.151,319.936 C207.393667,320.328 207.722667,320.631333 208.138,320.846 C208.553333,321.060667 209.031667,321.168 209.573,321.168 C210.254333,321.168 210.851667,321.011667 211.365,320.699 C211.878333,320.386333 212.282,319.957 212.576,319.411 C212.87,318.865 213.017,318.242 213.017,317.542 C213.017,316.842 212.87,316.216667 212.576,315.666 C212.282,315.115333 211.878333,314.681333 211.365,314.364 C210.851667,314.046667 210.259,313.888 209.587,313.888 C208.971,313.888 208.467,314.014 208.075,314.266 C207.683,314.518 207.375,314.807333 207.151,315.134 L207.151,315.134 L206.997,314.056 L205.667,314.056 L205.667,324.08 L207.151,324.08 Z M209.321,319.88 C208.686333,319.88 208.166,319.663 207.76,319.229 C207.354,318.795 207.151,318.228 207.151,317.528 C207.151,316.837333 207.354,316.272667 207.76,315.834 C208.166,315.395333 208.686333,315.176 209.321,315.176 C209.750333,315.176 210.128333,315.276333 210.455,315.477 C210.781667,315.677667 211.038333,315.955333 211.225,316.31 C211.411667,316.664667 211.505,317.070667 211.505,317.528 C211.505,318.228 211.299667,318.795 210.889,319.229 C210.478333,319.663 209.955667,319.88 209.321,319.88 Z M216.361,324.08 L216.361,319.936 C216.603667,320.328 216.932667,320.631333 217.348,320.846 C217.763333,321.060667 218.241667,321.168 218.783,321.168 C219.464333,321.168 220.061667,321.011667 220.575,320.699 C221.088333,320.386333 221.492,319.957 221.786,319.411 C222.08,318.865 222.227,318.242 222.227,317.542 C222.227,316.842 222.08,316.216667 221.786,315.666 C221.492,315.115333 221.088333,314.681333 220.575,314.364 C220.061667,314.046667 219.469,313.888 218.797,313.888 C218.181,313.888 217.677,314.014 217.285,314.266 C216.893,314.518 216.585,314.807333 216.361,315.134 L216.361,315.134 L216.207,314.056 L214.877,314.056 L214.877,324.08 L216.361,324.08 Z M218.531,319.88 C217.896333,319.88 217.376,319.663 216.97,319.229 C216.564,318.795 216.361,318.228 216.361,317.528 C216.361,316.837333 216.564,316.272667 216.97,315.834 C217.376,315.395333 217.896333,315.176 218.531,315.176 C218.960333,315.176 219.338333,315.276333 219.665,315.477 C219.991667,315.677667 220.248333,315.955333 220.435,316.31 C220.621667,316.664667 220.715,317.070667 220.715,317.528 C220.715,318.228 220.509667,318.795 220.099,319.229 C219.688333,319.663 219.165667,319.88 218.531,319.88 Z M231.925,321 L231.925,319.74 L231.127,319.74 C230.725667,319.74 230.443333,319.667667 230.28,319.523 C230.116667,319.378333 230.035,319.114667 230.035,318.732 L230.035,318.732 L230.035,315.302 L231.995,315.302 L231.995,314.056 L230.035,314.056 L230.035,312.292 L228.733,312.292 L228.551,314.056 L227.361,314.056 L227.361,315.302 L228.551,315.302 L228.551,318.732 C228.551,319.581333 228.751667,320.171667 229.153,320.503 C229.554333,320.834333 230.095667,321 230.777,321 L230.777,321 L231.925,321 Z M235.255,321 L235.255,317.416 C235.255,316.688 235.439333,316.128 235.808,315.736 C236.176667,315.344 236.641,315.148 237.201,315.148 C238.274333,315.148 238.811,315.82 238.811,317.164 L238.811,317.164 L238.811,321 L240.281,321 L240.281,317.01 C240.281,315.974 240.043,315.194667 239.567,314.672 C239.091,314.149333 238.437667,313.888 237.607,313.888 C237.103,313.888 236.643333,314.002333 236.228,314.231 C235.812667,314.459667 235.488333,314.774667 235.255,315.176 L235.255,315.176 L235.255,310.92 L233.771,310.92 L233.771,321 L235.255,321 Z M244.633,321.168 C245.239667,321.168 245.729667,321.037333 246.103,320.776 C246.476333,320.514667 246.761,320.192667 246.957,319.81 L246.957,319.81 L247.083,321 L248.371,321 L248.371,316.73 C248.371,315.852667 248.105,315.159667 247.573,314.651 C247.041,314.142333 246.289667,313.888 245.319,313.888 C244.777667,313.888 244.280667,313.983667 243.828,314.175 C243.375333,314.366333 243.002,314.641667 242.708,315.001 C242.414,315.360333 242.243667,315.792 242.197,316.296 L242.197,316.296 L243.681,316.296 C243.746333,315.904 243.930667,315.607667 244.234,315.407 C244.537333,315.206333 244.894333,315.106 245.305,315.106 C245.771667,315.106 246.152,315.241333 246.446,315.512 C246.74,315.782667 246.887,316.188667 246.887,316.73 L246.887,316.73 L246.887,316.856 L245.067,316.856 C244.096333,316.856 243.349667,317.052 242.827,317.444 C242.304333,317.836 242.043,318.368 242.043,319.04 C242.043,319.422667 242.136333,319.775 242.323,320.097 C242.509667,320.419 242.794333,320.678 243.177,320.874 C243.559667,321.07 244.045,321.168 244.633,321.168 Z M244.927,319.964 C244.516333,319.964 244.192,319.873 243.954,319.691 C243.716,319.509 243.597,319.259333 243.597,318.942 C243.597,318.634 243.720667,318.377333 243.968,318.172 C244.215333,317.966667 244.633,317.864 245.221,317.864 L245.221,317.864 L246.873,317.864 C246.835667,318.246667 246.74,318.596667 246.586,318.914 C246.432,319.231333 246.217333,319.485667 245.942,319.677 C245.666667,319.868333 245.328333,319.964 244.927,319.964 Z M254.277,321 L254.277,319.74 L253.479,319.74 C253.077667,319.74 252.795333,319.667667 252.632,319.523 C252.468667,319.378333 252.387,319.114667 252.387,318.732 L252.387,318.732 L252.387,315.302 L254.347,315.302 L254.347,314.056 L252.387,314.056 L252.387,312.292 L251.085,312.292 L250.903,314.056 L249.713,314.056 L249.713,315.302 L250.903,315.302 L250.903,318.732 C250.903,319.581333 251.103667,320.171667 251.505,320.503 C251.906333,320.834333 252.447667,321 253.129,321 L253.129,321 L254.277,321 Z M262.253,321.168 C262.859667,321.168 263.349667,321.037333 263.723,320.776 C264.096333,320.514667 264.381,320.192667 264.577,319.81 L264.577,319.81 L264.703,321 L265.991,321 L265.991,316.73 C265.991,315.852667 265.725,315.159667 265.193,314.651 C264.661,314.142333 263.909667,313.888 262.939,313.888 C262.397667,313.888 261.900667,313.983667 261.448,314.175 C260.995333,314.366333 260.622,314.641667 260.328,315.001 C260.034,315.360333 259.863667,315.792 259.817,316.296 L259.817,316.296 L261.301,316.296 C261.366333,315.904 261.550667,315.607667 261.854,315.407 C262.157333,315.206333 262.514333,315.106 262.925,315.106 C263.391667,315.106 263.772,315.241333 264.066,315.512 C264.36,315.782667 264.507,316.188667 264.507,316.73 L264.507,316.73 L264.507,316.856 L262.687,316.856 C261.716333,316.856 260.969667,317.052 260.447,317.444 C259.924333,317.836 259.663,318.368 259.663,319.04 C259.663,319.422667 259.756333,319.775 259.943,320.097 C260.129667,320.419 260.414333,320.678 260.797,320.874 C261.179667,321.07 261.665,321.168 262.253,321.168 Z M262.547,319.964 C262.136333,319.964 261.812,319.873 261.574,319.691 C261.336,319.509 261.217,319.259333 261.217,318.942 C261.217,318.634 261.340667,318.377333 261.588,318.172 C261.835333,317.966667 262.253,317.864 262.841,317.864 L262.841,317.864 L264.493,317.864 C264.455667,318.246667 264.36,318.596667 264.206,318.914 C264.052,319.231333 263.837333,319.485667 263.562,319.677 C263.286667,319.868333 262.948333,319.964 262.547,319.964 Z M269.461,321 L269.461,310.92 L267.977,310.92 L267.977,321 L269.461,321 Z M273.071,321 L273.071,310.92 L271.587,310.92 L271.587,321 L273.071,321 Z M278.445,321.168 C279.107667,321.168 279.705,321.016333 280.237,320.713 C280.769,320.409667 281.191333,319.985 281.504,319.439 C281.816667,318.893 281.973,318.256 281.973,317.528 C281.973,316.8 281.816667,316.163 281.504,315.617 C281.191333,315.071 280.771333,314.646333 280.244,314.343 C279.716667,314.039667 279.121667,313.888 278.459,313.888 C277.805667,313.888 277.213,314.039667 276.681,314.343 C276.149,314.646333 275.726667,315.071 275.414,315.617 C275.101333,316.163 274.945,316.8 274.945,317.528 C274.945,318.256 275.099,318.893 275.407,319.439 C275.715,319.985 276.132667,320.409667 276.66,320.713 C277.187333,321.016333 277.782333,321.168 278.445,321.168 Z M278.445,319.894 C278.090333,319.894 277.763667,319.805333 277.465,319.628 C277.166333,319.450667 276.923667,319.187 276.737,318.837 C276.550333,318.487 276.457,318.050667 276.457,317.528 C276.457,317.005333 276.550333,316.569 276.737,316.219 C276.923667,315.869 277.168667,315.605333 277.472,315.428 C277.775333,315.250667 278.104333,315.162 278.459,315.162 C278.813667,315.162 279.142667,315.250667 279.446,315.428 C279.749333,315.605333 279.992,315.869 280.174,316.219 C280.356,316.569 280.447,317.005333 280.447,317.528 C280.447,318.050667 280.353667,318.487 280.167,318.837 C279.980333,319.187 279.735333,319.450667 279.432,319.628 C279.128667,319.805333 278.799667,319.894 278.445,319.894 Z M286.479,321 L288.075,315.54 L289.671,321 L291.197,321 L293.241,314.056 L291.757,314.056 L290.413,319.292 L288.901,314.056 L287.249,314.056 L285.737,319.292 L284.393,314.056 L282.909,314.056 L284.953,321 L286.479,321 Z M297.481,321.168 C298.339667,321.168 299.018667,320.958 299.518,320.538 C300.017333,320.118 300.262333,319.590667 300.253,318.956 C300.253,318.452 300.131667,318.069333 299.889,317.808 C299.646333,317.546667 299.326667,317.348333 298.93,317.213 C298.533333,317.077667 298.101667,316.958667 297.635,316.856 C297.168333,316.744 296.792667,316.618 296.508,316.478 C296.223333,316.338 296.081,316.146667 296.081,315.904 C296.081,315.661333 296.183667,315.463 296.389,315.309 C296.594333,315.155 296.883667,315.078 297.257,315.078 C297.639667,315.078 297.945333,315.162 298.174,315.33 C298.402667,315.498 298.540333,315.731333 298.587,316.03 L298.587,316.03 L300.015,316.03 C299.931,315.348667 299.648667,314.821333 299.168,314.448 C298.687333,314.074667 298.059667,313.888 297.285,313.888 C296.445,313.888 295.791667,314.091 295.325,314.497 C294.858333,314.903 294.625,315.409333 294.625,316.016 C294.625,316.454667 294.753333,316.802333 295.01,317.059 C295.266667,317.315667 295.588667,317.514 295.976,317.654 C296.363333,317.794 296.753,317.906 297.145,317.99 C297.649,318.092667 298.043333,318.207 298.328,318.333 C298.612667,318.459 298.755,318.699333 298.755,319.054 C298.755,319.296667 298.652333,319.511333 298.447,319.698 C298.241667,319.884667 297.915,319.978 297.467,319.978 C297.009667,319.978 296.641,319.863667 296.361,319.635 C296.081,319.406333 295.903667,319.133333 295.829,318.816 L295.829,318.816 L294.331,318.816 C294.415,319.525333 294.741667,320.094667 295.311,320.524 C295.880333,320.953333 296.603667,321.168 297.481,321.168 Z M308.285,324.08 L312.765,314.056 L311.197,314.056 L308.971,319.194 L306.843,314.056 L305.233,314.056 L307.977,320.426 L308.383,320.426 L306.717,324.08 L308.285,324.08 Z M316.851,321.168 C317.513667,321.168 318.111,321.016333 318.643,320.713 C319.175,320.409667 319.597333,319.985 319.91,319.439 C320.222667,318.893 320.379,318.256 320.379,317.528 C320.379,316.8 320.222667,316.163 319.91,315.617 C319.597333,315.071 319.177333,314.646333 318.65,314.343 C318.122667,314.039667 317.527667,313.888 316.865,313.888 C316.211667,313.888 315.619,314.039667 315.087,314.343 C314.555,314.646333 314.132667,315.071 313.82,315.617 C313.507333,316.163 313.351,316.8 313.351,317.528 C313.351,318.256 313.505,318.893 313.813,319.439 C314.121,319.985 314.538667,320.409667 315.066,320.713 C315.593333,321.016333 316.188333,321.168 316.851,321.168 Z M316.851,319.894 C316.496333,319.894 316.169667,319.805333 315.871,319.628 C315.572333,319.450667 315.329667,319.187 315.143,318.837 C314.956333,318.487 314.863,318.050667 314.863,317.528 C314.863,317.005333 314.956333,316.569 315.143,316.219 C315.329667,315.869 315.574667,315.605333 315.878,315.428 C316.181333,315.250667 316.510333,315.162 316.865,315.162 C317.219667,315.162 317.548667,315.250667 317.852,315.428 C318.155333,315.605333 318.398,315.869 318.58,316.219 C318.762,316.569 318.853,317.005333 318.853,317.528 C318.853,318.050667 318.759667,318.487 318.573,318.837 C318.386333,319.187 318.141333,319.450667 317.838,319.628 C317.534667,319.805333 317.205667,319.894 316.851,319.894 Z M324.801,321.168 C325.342333,321.168 325.820667,321.044333 326.236,320.797 C326.651333,320.549667 326.966333,320.211333 327.181,319.782 L327.181,319.782 L327.293,321 L328.609,321 L328.609,314.056 L327.125,314.056 L327.125,317.64 C327.125,318.368 326.947667,318.928 326.593,319.32 C326.238333,319.712 325.785667,319.908 325.235,319.908 C324.133667,319.908 323.583,319.236 323.583,317.892 L323.583,317.892 L323.583,314.056 L322.099,314.056 L322.099,318.046 C322.099,319.082 322.339333,319.861333 322.82,320.384 C323.300667,320.906667 323.961,321.168 324.801,321.168 Z M338.587,321 L338.587,319.74 L337.789,319.74 C337.387667,319.74 337.105333,319.667667 336.942,319.523 C336.778667,319.378333 336.697,319.114667 336.697,318.732 L336.697,318.732 L336.697,315.302 L338.657,315.302 L338.657,314.056 L336.697,314.056 L336.697,312.292 L335.395,312.292 L335.213,314.056 L334.023,314.056 L334.023,315.302 L335.213,315.302 L335.213,318.732 C335.213,319.581333 335.413667,320.171667 335.815,320.503 C336.216333,320.834333 336.757667,321 337.439,321 L337.439,321 L338.587,321 Z M343.499,321.168 C344.161667,321.168 344.759,321.016333 345.291,320.713 C345.823,320.409667 346.245333,319.985 346.558,319.439 C346.870667,318.893 347.027,318.256 347.027,317.528 C347.027,316.8 346.870667,316.163 346.558,315.617 C346.245333,315.071 345.825333,314.646333 345.298,314.343 C344.770667,314.039667 344.175667,313.888 343.513,313.888 C342.859667,313.888 342.267,314.039667 341.735,314.343 C341.203,314.646333 340.780667,315.071 340.468,315.617 C340.155333,316.163 339.999,316.8 339.999,317.528 C339.999,318.256 340.153,318.893 340.461,319.439 C340.769,319.985 341.186667,320.409667 341.714,320.713 C342.241333,321.016333 342.836333,321.168 343.499,321.168 Z M343.499,319.894 C343.144333,319.894 342.817667,319.805333 342.519,319.628 C342.220333,319.450667 341.977667,319.187 341.791,318.837 C341.604333,318.487 341.511,318.050667 341.511,317.528 C341.511,317.005333 341.604333,316.569 341.791,316.219 C341.977667,315.869 342.222667,315.605333 342.526,315.428 C342.829333,315.250667 343.158333,315.162 343.513,315.162 C343.867667,315.162 344.196667,315.250667 344.5,315.428 C344.803333,315.605333 345.046,315.869 345.228,316.219 C345.41,316.569 345.501,317.005333 345.501,317.528 C345.501,318.050667 345.407667,318.487 345.221,318.837 C345.034333,319.187 344.789333,319.450667 344.486,319.628 C344.182667,319.805333 343.853667,319.894 343.499,319.894 Z M74.309,337 L74.309,333.444 L77.305,337 L79.181,337 L75.793,333.206 L78.747,330.056 L76.969,330.056 L74.309,332.926 L74.309,326.92 L72.825,326.92 L72.825,337 L74.309,337 Z M83.295,337.168 C84.1163333,337.168 84.8046667,336.948667 85.36,336.51 C85.9153333,336.071333 86.2863333,335.525333 86.473,334.872 L86.473,334.872 L84.989,334.872 C84.849,335.198667 84.6366667,335.457667 84.352,335.649 C84.0673333,335.840333 83.715,335.936 83.295,335.936 C82.7723333,335.936 82.3126667,335.761 81.916,335.411 C81.5193333,335.061 81.2976667,334.55 81.251,333.878 L81.251,333.878 L86.655,333.878 C86.6643333,333.747333 86.6713333,333.628333 86.676,333.521 C86.6806667,333.413667 86.683,333.313333 86.683,333.22 C86.683,332.613333 86.543,332.058 86.263,331.554 C85.983,331.05 85.591,330.646333 85.087,330.343 C84.583,330.039667 83.9903333,329.888 83.309,329.888 C82.609,329.888 81.9953333,330.042 81.468,330.35 C80.9406667,330.658 80.53,331.087333 80.236,331.638 C79.942,332.188667 79.795,332.828 79.795,333.556 C79.795,334.274667 79.9443333,334.904667 80.243,335.446 C80.5416667,335.987333 80.9546667,336.409667 81.482,336.713 C82.0093333,337.016333 82.6136667,337.168 83.295,337.168 Z M85.199,332.87 L81.279,332.87 C81.363,332.282 81.5963333,331.841 81.979,331.547 C82.3616667,331.253 82.8003333,331.106 83.295,331.106 C83.827,331.106 84.2703333,331.264667 84.625,331.582 C84.9796667,331.899333 85.171,332.328667 85.199,332.87 L85.199,332.87 Z M91.721,337.168 C92.5423333,337.168 93.2306667,336.948667 93.786,336.51 C94.3413333,336.071333 94.7123333,335.525333 94.899,334.872 L94.899,334.872 L93.415,334.872 C93.275,335.198667 93.0626667,335.457667 92.778,335.649 C92.4933333,335.840333 92.141,335.936 91.721,335.936 C91.1983333,335.936 90.7386667,335.761 90.342,335.411 C89.9453333,335.061 89.7236667,334.55 89.677,333.878 L89.677,333.878 L95.081,333.878 C95.0903333,333.747333 95.0973333,333.628333 95.102,333.521 C95.1066667,333.413667 95.109,333.313333 95.109,333.22 C95.109,332.613333 94.969,332.058 94.689,331.554 C94.409,331.05 94.017,330.646333 93.513,330.343 C93.009,330.039667 92.4163333,329.888 91.735,329.888 C91.035,329.888 90.4213333,330.042 89.894,330.35 C89.3666667,330.658 88.956,331.087333 88.662,331.638 C88.368,332.188667 88.221,332.828 88.221,333.556 C88.221,334.274667 88.3703333,334.904667 88.669,335.446 C88.9676667,335.987333 89.3806667,336.409667 89.908,336.713 C90.4353333,337.016333 91.0396667,337.168 91.721,337.168 Z M93.625,332.87 L89.705,332.87 C89.789,332.282 90.0223333,331.841 90.405,331.547 C90.7876667,331.253 91.2263333,331.106 91.721,331.106 C92.253,331.106 92.6963333,331.264667 93.051,331.582 C93.4056667,331.899333 93.597,332.328667 93.625,332.87 L93.625,332.87 Z M98.383,340.08 L98.383,335.936 C98.6256667,336.328 98.9546667,336.631333 99.37,336.846 C99.7853333,337.060667 100.263667,337.168 100.805,337.168 C101.486333,337.168 102.083667,337.011667 102.597,336.699 C103.110333,336.386333 103.514,335.957 103.808,335.411 C104.102,334.865 104.249,334.242 104.249,333.542 C104.249,332.842 104.102,332.216667 103.808,331.666 C103.514,331.115333 103.110333,330.681333 102.597,330.364 C102.083667,330.046667 101.491,329.888 100.819,329.888 C100.203,329.888 99.699,330.014 99.307,330.266 C98.915,330.518 98.607,330.807333 98.383,331.134 L98.383,331.134 L98.229,330.056 L96.899,330.056 L96.899,340.08 L98.383,340.08 Z M100.553,335.88 C99.9183333,335.88 99.398,335.663 98.992,335.229 C98.586,334.795 98.383,334.228 98.383,333.528 C98.383,332.837333 98.586,332.272667 98.992,331.834 C99.398,331.395333 99.9183333,331.176 100.553,331.176 C100.982333,331.176 101.360333,331.276333 101.687,331.477 C102.013667,331.677667 102.270333,331.955333 102.457,332.31 C102.643667,332.664667 102.737,333.070667 102.737,333.528 C102.737,334.228 102.531667,334.795 102.121,335.229 C101.710333,335.663 101.187667,335.88 100.553,335.88 Z M112.239,337.168 C112.845667,337.168 113.335667,337.037333 113.709,336.776 C114.082333,336.514667 114.367,336.192667 114.563,335.81 L114.563,335.81 L114.689,337 L115.977,337 L115.977,332.73 C115.977,331.852667 115.711,331.159667 115.179,330.651 C114.647,330.142333 113.895667,329.888 112.925,329.888 C112.383667,329.888 111.886667,329.983667 111.434,330.175 C110.981333,330.366333 110.608,330.641667 110.314,331.001 C110.02,331.360333 109.849667,331.792 109.803,332.296 L109.803,332.296 L111.287,332.296 C111.352333,331.904 111.536667,331.607667 111.84,331.407 C112.143333,331.206333 112.500333,331.106 112.911,331.106 C113.377667,331.106 113.758,331.241333 114.052,331.512 C114.346,331.782667 114.493,332.188667 114.493,332.73 L114.493,332.73 L114.493,332.856 L112.673,332.856 C111.702333,332.856 110.955667,333.052 110.433,333.444 C109.910333,333.836 109.649,334.368 109.649,335.04 C109.649,335.422667 109.742333,335.775 109.929,336.097 C110.115667,336.419 110.400333,336.678 110.783,336.874 C111.165667,337.07 111.651,337.168 112.239,337.168 Z M112.533,335.964 C112.122333,335.964 111.798,335.873 111.56,335.691 C111.322,335.509 111.203,335.259333 111.203,334.942 C111.203,334.634 111.326667,334.377333 111.574,334.172 C111.821333,333.966667 112.239,333.864 112.827,333.864 L112.827,333.864 L114.479,333.864 C114.441667,334.246667 114.346,334.596667 114.192,334.914 C114.038,335.231333 113.823333,335.485667 113.548,335.677 C113.272667,335.868333 112.934333,335.964 112.533,335.964 Z M123.225,337 L123.225,333.668 C123.225,333.098667 123.320667,332.653 123.512,332.331 C123.703333,332.009 123.96,331.780333 124.282,331.645 C124.604,331.509667 124.970333,331.442 125.381,331.442 L125.381,331.442 L125.787,331.442 L125.787,329.888 C125.171,329.888 124.646,330.021 124.212,330.287 C123.778,330.553 123.439667,330.914667 123.197,331.372 L123.197,331.372 L123.071,330.056 L121.741,330.056 L121.741,337 L123.225,337 Z M130.363,337.168 C131.184333,337.168 131.872667,336.948667 132.428,336.51 C132.983333,336.071333 133.354333,335.525333 133.541,334.872 L133.541,334.872 L132.057,334.872 C131.917,335.198667 131.704667,335.457667 131.42,335.649 C131.135333,335.840333 130.783,335.936 130.363,335.936 C129.840333,335.936 129.380667,335.761 128.984,335.411 C128.587333,335.061 128.365667,334.55 128.319,333.878 L128.319,333.878 L133.723,333.878 C133.732333,333.747333 133.739333,333.628333 133.744,333.521 C133.748667,333.413667 133.751,333.313333 133.751,333.22 C133.751,332.613333 133.611,332.058 133.331,331.554 C133.051,331.05 132.659,330.646333 132.155,330.343 C131.651,330.039667 131.058333,329.888 130.377,329.888 C129.677,329.888 129.063333,330.042 128.536,330.35 C128.008667,330.658 127.598,331.087333 127.304,331.638 C127.01,332.188667 126.863,332.828 126.863,333.556 C126.863,334.274667 127.012333,334.904667 127.311,335.446 C127.609667,335.987333 128.022667,336.409667 128.55,336.713 C129.077333,337.016333 129.681667,337.168 130.363,337.168 Z M132.267,332.87 L128.347,332.87 C128.431,332.282 128.664333,331.841 129.047,331.547 C129.429667,331.253 129.868333,331.106 130.363,331.106 C130.895,331.106 131.338333,331.264667 131.693,331.582 C132.047667,331.899333 132.239,332.328667 132.267,332.87 L132.267,332.87 Z M138.831,337.168 C139.689667,337.168 140.413,336.939333 141.001,336.482 C141.589,336.024667 141.962333,335.422667 142.121,334.676 L142.121,334.676 L140.567,334.676 C140.473667,335.068 140.268333,335.371333 139.951,335.586 C139.633667,335.800667 139.260333,335.908 138.831,335.908 C138.467,335.908 138.131,335.814667 137.823,335.628 C137.515,335.441333 137.267667,335.173 137.081,334.823 C136.894333,334.473 136.801,334.041333 136.801,333.528 C136.801,333.014667 136.894333,332.583 137.081,332.233 C137.267667,331.883 137.515,331.617 137.823,331.435 C138.131,331.253 138.467,331.162 138.831,331.162 C139.260333,331.162 139.633667,331.269333 139.951,331.484 C140.268333,331.698667 140.473667,331.997333 140.567,332.38 L140.567,332.38 L142.121,332.38 C141.953,331.614667 141.577333,331.008 140.994,330.56 C140.410667,330.112 139.689667,329.888 138.831,329.888 C138.149667,329.888 137.540667,330.042 137.004,330.35 C136.467333,330.658 136.047333,331.085 135.744,331.631 C135.440667,332.177 135.289,332.809333 135.289,333.528 C135.289,334.246667 135.440667,334.879 135.744,335.425 C136.047333,335.971 136.467333,336.398 137.004,336.706 C137.540667,337.014 138.149667,337.168 138.831,337.168 Z M147.229,337.168 C147.891667,337.168 148.489,337.016333 149.021,336.713 C149.553,336.409667 149.975333,335.985 150.288,335.439 C150.600667,334.893 150.757,334.256 150.757,333.528 C150.757,332.8 150.600667,332.163 150.288,331.617 C149.975333,331.071 149.555333,330.646333 149.028,330.343 C148.500667,330.039667 147.905667,329.888 147.243,329.888 C146.589667,329.888 145.997,330.039667 145.465,330.343 C144.933,330.646333 144.510667,331.071 144.198,331.617 C143.885333,332.163 143.729,332.8 143.729,333.528 C143.729,334.256 143.883,334.893 144.191,335.439 C144.499,335.985 144.916667,336.409667 145.444,336.713 C145.971333,337.016333 146.566333,337.168 147.229,337.168 Z M147.229,335.894 C146.874333,335.894 146.547667,335.805333 146.249,335.628 C145.950333,335.450667 145.707667,335.187 145.521,334.837 C145.334333,334.487 145.241,334.050667 145.241,333.528 C145.241,333.005333 145.334333,332.569 145.521,332.219 C145.707667,331.869 145.952667,331.605333 146.256,331.428 C146.559333,331.250667 146.888333,331.162 147.243,331.162 C147.597667,331.162 147.926667,331.250667 148.23,331.428 C148.533333,331.605333 148.776,331.869 148.958,332.219 C149.14,332.569 149.231,333.005333 149.231,333.528 C149.231,334.050667 149.137667,334.487 148.951,334.837 C148.764333,335.187 148.519333,335.450667 148.216,335.628 C147.912667,335.805333 147.583667,335.894 147.229,335.894 Z M154.101,337 L154.101,333.668 C154.101,333.098667 154.196667,332.653 154.388,332.331 C154.579333,332.009 154.836,331.780333 155.158,331.645 C155.48,331.509667 155.846333,331.442 156.257,331.442 L156.257,331.442 L156.663,331.442 L156.663,329.888 C156.047,329.888 155.522,330.021 155.088,330.287 C154.654,330.553 154.315667,330.914667 154.073,331.372 L154.073,331.372 L153.947,330.056 L152.617,330.056 L152.617,337 L154.101,337 Z M161.155,337.168 C161.771,337.168 162.275,337.042 162.667,336.79 C163.059,336.538 163.367,336.248667 163.591,335.922 L163.591,335.922 L163.745,337 L165.075,337 L165.075,326.92 L163.591,326.92 L163.591,331.12 C163.357667,330.728 163.033333,330.424667 162.618,330.21 C162.202667,329.995333 161.719667,329.888 161.169,329.888 C160.497,329.888 159.902,330.044333 159.384,330.357 C158.866,330.669667 158.462333,331.099 158.173,331.645 C157.883667,332.191 157.739,332.814 157.739,333.514 C157.739,334.214 157.883667,334.839333 158.173,335.39 C158.462333,335.940667 158.863667,336.374667 159.377,336.692 C159.890333,337.009333 160.483,337.168 161.155,337.168 Z M161.421,335.88 C161.001,335.88 160.625333,335.779667 160.294,335.579 C159.962667,335.378333 159.703667,335.100667 159.517,334.746 C159.330333,334.391333 159.237,333.985333 159.237,333.528 C159.237,332.828 159.442333,332.261 159.853,331.827 C160.263667,331.393 160.786333,331.176 161.421,331.176 C162.055667,331.176 162.576,331.393 162.982,331.827 C163.388,332.261 163.591,332.828 163.591,333.528 C163.591,334.218667 163.388,334.783333 162.982,335.222 C162.576,335.660667 162.055667,335.88 161.421,335.88 Z M174.227,337.168 C174.889667,337.168 175.487,337.016333 176.019,336.713 C176.551,336.409667 176.973333,335.985 177.286,335.439 C177.598667,334.893 177.755,334.256 177.755,333.528 C177.755,332.8 177.598667,332.163 177.286,331.617 C176.973333,331.071 176.553333,330.646333 176.026,330.343 C175.498667,330.039667 174.903667,329.888 174.241,329.888 C173.587667,329.888 172.995,330.039667 172.463,330.343 C171.931,330.646333 171.508667,331.071 171.196,331.617 C170.883333,332.163 170.727,332.8 170.727,333.528 C170.727,334.256 170.881,334.893 171.189,335.439 C171.497,335.985 171.914667,336.409667 172.442,336.713 C172.969333,337.016333 173.564333,337.168 174.227,337.168 Z M174.227,335.894 C173.872333,335.894 173.545667,335.805333 173.247,335.628 C172.948333,335.450667 172.705667,335.187 172.519,334.837 C172.332333,334.487 172.239,334.050667 172.239,333.528 C172.239,333.005333 172.332333,332.569 172.519,332.219 C172.705667,331.869 172.950667,331.605333 173.254,331.428 C173.557333,331.250667 173.886333,331.162 174.241,331.162 C174.595667,331.162 174.924667,331.250667 175.228,331.428 C175.531333,331.605333 175.774,331.869 175.956,332.219 C176.138,332.569 176.229,333.005333 176.229,333.528 C176.229,334.050667 176.135667,334.487 175.949,334.837 C175.762333,335.187 175.517333,335.450667 175.214,335.628 C174.910667,335.805333 174.581667,335.894 174.227,335.894 Z M181.449,337 L181.449,331.302 L183.045,331.302 L183.045,330.056 L181.449,330.056 L181.449,329.062 C181.449,328.744667 181.519,328.518333 181.659,328.383 C181.799,328.247667 182.032333,328.18 182.359,328.18 L182.359,328.18 L182.863,328.18 L182.863,326.92 L182.135,326.92 C181.444333,326.92 180.91,327.085667 180.532,327.417 C180.154,327.748333 179.965,328.292 179.965,329.048 L179.965,329.048 L179.965,330.056 L178.971,330.056 L178.971,331.302 L179.965,331.302 L179.965,337 L181.449,337 Z M190.867,340.08 L195.347,330.056 L193.779,330.056 L191.553,335.194 L189.425,330.056 L187.815,330.056 L190.559,336.426 L190.965,336.426 L189.299,340.08 L190.867,340.08 Z M199.433,337.168 C200.095667,337.168 200.693,337.016333 201.225,336.713 C201.757,336.409667 202.179333,335.985 202.492,335.439 C202.804667,334.893 202.961,334.256 202.961,333.528 C202.961,332.8 202.804667,332.163 202.492,331.617 C202.179333,331.071 201.759333,330.646333 201.232,330.343 C200.704667,330.039667 200.109667,329.888 199.447,329.888 C198.793667,329.888 198.201,330.039667 197.669,330.343 C197.137,330.646333 196.714667,331.071 196.402,331.617 C196.089333,332.163 195.933,332.8 195.933,333.528 C195.933,334.256 196.087,334.893 196.395,335.439 C196.703,335.985 197.120667,336.409667 197.648,336.713 C198.175333,337.016333 198.770333,337.168 199.433,337.168 Z M199.433,335.894 C199.078333,335.894 198.751667,335.805333 198.453,335.628 C198.154333,335.450667 197.911667,335.187 197.725,334.837 C197.538333,334.487 197.445,334.050667 197.445,333.528 C197.445,333.005333 197.538333,332.569 197.725,332.219 C197.911667,331.869 198.156667,331.605333 198.46,331.428 C198.763333,331.250667 199.092333,331.162 199.447,331.162 C199.801667,331.162 200.130667,331.250667 200.434,331.428 C200.737333,331.605333 200.98,331.869 201.162,332.219 C201.344,332.569 201.435,333.005333 201.435,333.528 C201.435,334.050667 201.341667,334.487 201.155,334.837 C200.968333,335.187 200.723333,335.450667 200.42,335.628 C200.116667,335.805333 199.787667,335.894 199.433,335.894 Z M207.383,337.168 C207.924333,337.168 208.402667,337.044333 208.818,336.797 C209.233333,336.549667 209.548333,336.211333 209.763,335.782 L209.763,335.782 L209.875,337 L211.191,337 L211.191,330.056 L209.707,330.056 L209.707,333.64 C209.707,334.368 209.529667,334.928 209.175,335.32 C208.820333,335.712 208.367667,335.908 207.817,335.908 C206.715667,335.908 206.165,335.236 206.165,333.892 L206.165,333.892 L206.165,330.056 L204.681,330.056 L204.681,334.046 C204.681,335.082 204.921333,335.861333 205.402,336.384 C205.882667,336.906667 206.543,337.168 207.383,337.168 Z M214.815,337 L214.815,333.668 C214.815,333.098667 214.910667,332.653 215.102,332.331 C215.293333,332.009 215.55,331.780333 215.872,331.645 C216.194,331.509667 216.560333,331.442 216.971,331.442 L216.971,331.442 L217.377,331.442 L217.377,329.888 C216.761,329.888 216.236,330.021 215.802,330.287 C215.368,330.553 215.029667,330.914667 214.787,331.372 L214.787,331.372 L214.661,330.056 L213.331,330.056 L213.331,337 L214.815,337 Z M225.843,337.168 C226.459,337.168 226.963,337.042 227.355,336.79 C227.747,336.538 228.055,336.248667 228.279,335.922 L228.279,335.922 L228.433,337 L229.763,337 L229.763,326.92 L228.279,326.92 L228.279,331.12 C228.045667,330.728 227.721333,330.424667 227.306,330.21 C226.890667,329.995333 226.407667,329.888 225.857,329.888 C225.185,329.888 224.59,330.044333 224.072,330.357 C223.554,330.669667 223.150333,331.099 222.861,331.645 C222.571667,332.191 222.427,332.814 222.427,333.514 C222.427,334.214 222.571667,334.839333 222.861,335.39 C223.150333,335.940667 223.551667,336.374667 224.065,336.692 C224.578333,337.009333 225.171,337.168 225.843,337.168 Z M226.109,335.88 C225.689,335.88 225.313333,335.779667 224.982,335.579 C224.650667,335.378333 224.391667,335.100667 224.205,334.746 C224.018333,334.391333 223.925,333.985333 223.925,333.528 C223.925,332.828 224.130333,332.261 224.541,331.827 C224.951667,331.393 225.474333,331.176 226.109,331.176 C226.743667,331.176 227.264,331.393 227.67,331.827 C228.076,332.261 228.279,332.828 228.279,333.528 C228.279,334.218667 228.076,334.783333 227.67,335.222 C227.264,335.660667 226.743667,335.88 226.109,335.88 Z M234.241,337.168 C234.847667,337.168 235.337667,337.037333 235.711,336.776 C236.084333,336.514667 236.369,336.192667 236.565,335.81 L236.565,335.81 L236.691,337 L237.979,337 L237.979,332.73 C237.979,331.852667 237.713,331.159667 237.181,330.651 C236.649,330.142333 235.897667,329.888 234.927,329.888 C234.385667,329.888 233.888667,329.983667 233.436,330.175 C232.983333,330.366333 232.61,330.641667 232.316,331.001 C232.022,331.360333 231.851667,331.792 231.805,332.296 L231.805,332.296 L233.289,332.296 C233.354333,331.904 233.538667,331.607667 233.842,331.407 C234.145333,331.206333 234.502333,331.106 234.913,331.106 C235.379667,331.106 235.76,331.241333 236.054,331.512 C236.348,331.782667 236.495,332.188667 236.495,332.73 L236.495,332.73 L236.495,332.856 L234.675,332.856 C233.704333,332.856 232.957667,333.052 232.435,333.444 C231.912333,333.836 231.651,334.368 231.651,335.04 C231.651,335.422667 231.744333,335.775 231.931,336.097 C232.117667,336.419 232.402333,336.678 232.785,336.874 C233.167667,337.07 233.653,337.168 234.241,337.168 Z M234.535,335.964 C234.124333,335.964 233.8,335.873 233.562,335.691 C233.324,335.509 233.205,335.259333 233.205,334.942 C233.205,334.634 233.328667,334.377333 233.576,334.172 C233.823333,333.966667 234.241,333.864 234.829,333.864 L234.829,333.864 L236.481,333.864 C236.443667,334.246667 236.348,334.596667 236.194,334.914 C236.04,335.231333 235.825333,335.485667 235.55,335.677 C235.274667,335.868333 234.936333,335.964 234.535,335.964 Z M240.805,328.74 C241.085,328.74 241.316,328.653667 241.498,328.481 C241.68,328.308333 241.771,328.091333 241.771,327.83 C241.771,327.568667 241.68,327.351667 241.498,327.179 C241.316,327.006333 241.085,326.92 240.805,326.92 C240.525,326.92 240.294,327.006333 240.112,327.179 C239.93,327.351667 239.839,327.568667 239.839,327.83 C239.839,328.091333 239.93,328.308333 240.112,328.481 C240.294,328.653667 240.525,328.74 240.805,328.74 Z M241.547,337 L241.547,330.056 L240.063,330.056 L240.063,337 L241.547,337 Z M245.241,337 L245.241,326.92 L243.757,326.92 L243.757,337 L245.241,337 Z M249.747,340.08 L254.227,330.056 L252.659,330.056 L250.433,335.194 L248.305,330.056 L246.695,330.056 L249.439,336.426 L249.845,336.426 L248.179,340.08 L249.747,340.08 Z M263.379,337.168 C264.060333,337.168 264.657667,337.011667 265.171,336.699 C265.684333,336.386333 266.088,335.957 266.382,335.411 C266.676,334.865 266.823,334.242 266.823,333.542 C266.823,332.842 266.676,332.216667 266.382,331.666 C266.088,331.115333 265.684333,330.681333 265.171,330.364 C264.657667,330.046667 264.065,329.888 263.393,329.888 C262.777,329.888 262.273,330.014 261.881,330.266 C261.489,330.518 261.181,330.807333 260.957,331.134 L260.957,331.134 L260.957,326.92 L259.473,326.92 L259.473,337 L260.803,337 L260.957,335.936 C261.199667,336.328 261.528667,336.631333 261.944,336.846 C262.359333,337.060667 262.837667,337.168 263.379,337.168 Z M263.127,335.88 C262.492333,335.88 261.972,335.663 261.566,335.229 C261.16,334.795 260.957,334.228 260.957,333.528 C260.957,332.837333 261.16,332.272667 261.566,331.834 C261.972,331.395333 262.492333,331.176 263.127,331.176 C263.556333,331.176 263.934333,331.276333 264.261,331.477 C264.587667,331.677667 264.844333,331.955333 265.031,332.31 C265.217667,332.664667 265.311,333.070667 265.311,333.528 C265.311,334.228 265.105667,334.795 264.695,335.229 C264.284333,335.663 263.761667,335.88 263.127,335.88 Z M270.167,337 L270.167,333.668 C270.167,333.098667 270.262667,332.653 270.454,332.331 C270.645333,332.009 270.902,331.780333 271.224,331.645 C271.546,331.509667 271.912333,331.442 272.323,331.442 L272.323,331.442 L272.729,331.442 L272.729,329.888 C272.113,329.888 271.588,330.021 271.154,330.287 C270.72,330.553 270.381667,330.914667 270.139,331.372 L270.139,331.372 L270.013,330.056 L268.683,330.056 L268.683,337 L270.167,337 Z M277.305,337.168 C278.126333,337.168 278.814667,336.948667 279.37,336.51 C279.925333,336.071333 280.296333,335.525333 280.483,334.872 L280.483,334.872 L278.999,334.872 C278.859,335.198667 278.646667,335.457667 278.362,335.649 C278.077333,335.840333 277.725,335.936 277.305,335.936 C276.782333,335.936 276.322667,335.761 275.926,335.411 C275.529333,335.061 275.307667,334.55 275.261,333.878 L275.261,333.878 L280.665,333.878 C280.674333,333.747333 280.681333,333.628333 280.686,333.521 C280.690667,333.413667 280.693,333.313333 280.693,333.22 C280.693,332.613333 280.553,332.058 280.273,331.554 C279.993,331.05 279.601,330.646333 279.097,330.343 C278.593,330.039667 278.000333,329.888 277.319,329.888 C276.619,329.888 276.005333,330.042 275.478,330.35 C274.950667,330.658 274.54,331.087333 274.246,331.638 C273.952,332.188667 273.805,332.828 273.805,333.556 C273.805,334.274667 273.954333,334.904667 274.253,335.446 C274.551667,335.987333 274.964667,336.409667 275.492,336.713 C276.019333,337.016333 276.623667,337.168 277.305,337.168 Z M279.209,332.87 L275.289,332.87 C275.373,332.282 275.606333,331.841 275.989,331.547 C276.371667,331.253 276.810333,331.106 277.305,331.106 C277.837,331.106 278.280333,331.264667 278.635,331.582 C278.989667,331.899333 279.181,332.328667 279.209,332.87 L279.209,332.87 Z M285.115,337 L286.711,331.54 L288.307,337 L289.833,337 L291.877,330.056 L290.393,330.056 L289.049,335.292 L287.537,330.056 L285.885,330.056 L284.373,335.292 L283.029,330.056 L281.545,330.056 L283.589,337 L285.115,337 Z M296.117,337.168 C296.975667,337.168 297.654667,336.958 298.154,336.538 C298.653333,336.118 298.898333,335.590667 298.889,334.956 C298.889,334.452 298.767667,334.069333 298.525,333.808 C298.282333,333.546667 297.962667,333.348333 297.566,333.213 C297.169333,333.077667 296.737667,332.958667 296.271,332.856 C295.804333,332.744 295.428667,332.618 295.144,332.478 C294.859333,332.338 294.717,332.146667 294.717,331.904 C294.717,331.661333 294.819667,331.463 295.025,331.309 C295.230333,331.155 295.519667,331.078 295.893,331.078 C296.275667,331.078 296.581333,331.162 296.81,331.33 C297.038667,331.498 297.176333,331.731333 297.223,332.03 L297.223,332.03 L298.651,332.03 C298.567,331.348667 298.284667,330.821333 297.804,330.448 C297.323333,330.074667 296.695667,329.888 295.921,329.888 C295.081,329.888 294.427667,330.091 293.961,330.497 C293.494333,330.903 293.261,331.409333 293.261,332.016 C293.261,332.454667 293.389333,332.802333 293.646,333.059 C293.902667,333.315667 294.224667,333.514 294.612,333.654 C294.999333,333.794 295.389,333.906 295.781,333.99 C296.285,334.092667 296.679333,334.207 296.964,334.333 C297.248667,334.459 297.391,334.699333 297.391,335.054 C297.391,335.296667 297.288333,335.511333 297.083,335.698 C296.877667,335.884667 296.551,335.978 296.103,335.978 C295.645667,335.978 295.277,335.863667 294.997,335.635 C294.717,335.406333 294.539667,335.133333 294.465,334.816 L294.465,334.816 L292.967,334.816 C293.051,335.525333 293.377667,336.094667 293.947,336.524 C294.516333,336.953333 295.239667,337.168 296.117,337.168 Z M301.351,337.084 C301.631,337.084 301.859667,336.993 302.037,336.811 C302.214333,336.629 302.303,336.412 302.303,336.16 C302.303,335.898667 302.214333,335.677 302.037,335.495 C301.859667,335.313 301.631,335.222 301.351,335.222 C301.071,335.222 300.84,335.313 300.658,335.495 C300.476,335.677 300.385,335.898667 300.385,336.16 C300.385,336.412 300.476,336.629 300.658,336.811 C300.84,336.993 301.071,337.084 301.351,337.084 Z" id="CoffeeNotesisasimpleappthatallowsyoutokeeparecordofyourdailybrews." fill="#57636C" fill-rule="nonzero"></path>
                <path d="M120.89,293 L120.89,283.16 L127.47,293 L130.03,293 L130.03,279 L127.47,279 L127.47,288.86 L120.89,279 L118.33,279 L118.33,293 L120.89,293 Z M137.45,293.24 C138.396667,293.24 139.256667,293.02 140.03,292.58 C140.803333,292.14 141.413333,291.53 141.86,290.75 C142.306667,289.97 142.53,289.066667 142.53,288.04 C142.53,287.013333 142.306667,286.11 141.86,285.33 C141.413333,284.55 140.806667,283.94 140.04,283.5 C139.273333,283.06 138.416667,282.84 137.47,282.84 C136.51,282.84 135.646667,283.06 134.88,283.5 C134.113333,283.94 133.503333,284.55 133.05,285.33 C132.596667,286.11 132.37,287.013333 132.37,288.04 C132.37,289.066667 132.593333,289.97 133.04,290.75 C133.486667,291.53 134.093333,292.14 134.86,292.58 C135.626667,293.02 136.49,293.24 137.45,293.24 Z M137.45,291.02 C136.783333,291.02 136.206667,290.77 135.72,290.27 C135.233333,289.77 134.99,289.026667 134.99,288.04 C134.99,287.053333 135.233333,286.31 135.72,285.81 C136.206667,285.31 136.79,285.06 137.47,285.06 C138.123333,285.06 138.696667,285.31 139.19,285.81 C139.683333,286.31 139.93,287.053333 139.93,288.04 C139.93,289.026667 139.683333,289.77 139.19,290.27 C138.696667,290.77 138.116667,291.02 137.45,291.02 Z M155.45,293 C156.916667,293 158.05,292.64 158.85,291.92 C159.65,291.2 160.05,290.286667 160.05,289.18 C160.05,288.34 159.79,287.603333 159.27,286.97 C158.75,286.336667 158.09,285.94 157.29,285.78 C157.97,285.593333 158.546667,285.236667 159.02,284.71 C159.493333,284.183333 159.73,283.48 159.73,282.6 C159.73,281.546667 159.346667,280.683333 158.58,280.01 C157.813333,279.336667 156.703333,279 155.25,279 L155.25,279 L149.63,279 L149.63,293 L155.45,293 Z M154.87,284.88 L152.19,284.88 L152.19,281.06 L154.83,281.06 C155.59,281.06 156.16,281.23 156.54,281.57 C156.92,281.91 157.11,282.373333 157.11,282.96 C157.11,283.573333 156.916667,284.046667 156.53,284.38 C156.143333,284.713333 155.59,284.88 154.87,284.88 L154.87,284.88 Z M155.05,290.92 L152.19,290.92 L152.19,286.8 L155.01,286.8 C155.756667,286.8 156.35,286.986667 156.79,287.36 C157.23,287.733333 157.45,288.246667 157.45,288.9 C157.45,289.54 157.24,290.036667 156.82,290.39 C156.4,290.743333 155.81,290.92 155.05,290.92 L155.05,290.92 Z M164.75,293 L164.75,288.48 C164.75,287.72 164.873333,287.126667 165.12,286.7 C165.366667,286.273333 165.71,285.973333 166.15,285.8 C166.59,285.626667 167.09,285.54 167.65,285.54 L167.65,285.54 L168.37,285.54 L168.37,282.84 C167.53,282.84 166.8,283.03 166.18,283.41 C165.56,283.79 165.07,284.3 164.71,284.94 L164.71,284.94 L164.47,283.08 L162.19,283.08 L162.19,293 L164.75,293 Z M174.93,293.24 C175.73,293.24 176.446667,293.093333 177.08,292.8 C177.713333,292.506667 178.246667,292.103333 178.68,291.59 C179.113333,291.076667 179.423333,290.506667 179.61,289.88 L179.61,289.88 L177.01,289.88 C176.836667,290.253333 176.573333,290.556667 176.22,290.79 C175.866667,291.023333 175.43,291.14 174.91,291.14 C174.216667,291.14 173.626667,290.92 173.14,290.48 C172.653333,290.04 172.383333,289.433333 172.33,288.66 L172.33,288.66 L179.87,288.66 C179.883333,288.486667 179.893333,288.32 179.9,288.16 C179.906667,288 179.91,287.846667 179.91,287.7 C179.91,286.793333 179.7,285.97 179.28,285.23 C178.86,284.49 178.276667,283.906667 177.53,283.48 C176.783333,283.053333 175.923333,282.84 174.95,282.84 C173.91,282.84 173.006667,283.063333 172.24,283.51 C171.473333,283.956667 170.873333,284.58 170.44,285.38 C170.006667,286.18 169.79,287.093333 169.79,288.12 C169.79,289.133333 170.01,290.026667 170.45,290.8 C170.89,291.573333 171.496667,292.173333 172.27,292.6 C173.043333,293.026667 173.93,293.24 174.93,293.24 Z M177.31,287.06 L172.37,287.06 C172.503333,286.34 172.81,285.803333 173.29,285.45 C173.77,285.096667 174.323333,284.92 174.95,284.92 C175.603333,284.92 176.15,285.113333 176.59,285.5 C177.03,285.886667 177.27,286.406667 177.31,287.06 L177.31,287.06 Z M186.67,293 L188.79,285.58 L190.91,293 L193.57,293 L196.49,283.08 L193.95,283.08 L192.21,290.22 L190.21,283.08 L187.37,283.08 L185.37,290.22 L183.65,283.08 L181.11,283.08 L184.01,293 L186.67,293 Z M202.21,293.24 C203.063333,293.24 203.803333,293.1 204.43,292.82 C205.056667,292.54 205.536667,292.153333 205.87,291.66 C206.203333,291.166667 206.363333,290.613333 206.35,290 C206.35,289.293333 206.176667,288.75 205.83,288.37 C205.483333,287.99 205.02,287.703333 204.44,287.51 C203.86,287.316667 203.223333,287.14 202.53,286.98 C201.89,286.833333 201.376667,286.673333 200.99,286.5 C200.603333,286.326667 200.41,286.093333 200.41,285.8 C200.41,285.52 200.54,285.286667 200.8,285.1 C201.06,284.913333 201.43,284.82 201.91,284.82 C202.87,284.82 203.423333,285.186667 203.57,285.92 L203.57,285.92 L205.99,285.92 C205.856667,284.96 205.44,284.206667 204.74,283.66 C204.04,283.113333 203.103333,282.84 201.93,282.84 C200.663333,282.84 199.68,283.14 198.98,283.74 C198.28,284.34 197.93,285.08 197.93,285.96 C197.93,286.44 198.043333,286.843333 198.27,287.17 C198.496667,287.496667 198.793333,287.763333 199.16,287.97 C199.526667,288.176667 199.93,288.346667 200.37,288.48 C200.81,288.613333 201.243333,288.726667 201.67,288.82 C202.336667,288.966667 202.856667,289.116667 203.23,289.27 C203.603333,289.423333 203.79,289.713333 203.79,290.14 C203.79,290.433333 203.66,290.693333 203.4,290.92 C203.14,291.146667 202.73,291.26 202.17,291.26 C201.61,291.26 201.153333,291.123333 200.8,290.85 C200.446667,290.576667 200.23,290.246667 200.15,289.86 L200.15,289.86 L197.57,289.86 C197.65,290.526667 197.89,291.113333 198.29,291.62 C198.69,292.126667 199.223333,292.523333 199.89,292.81 C200.556667,293.096667 201.33,293.24 202.21,293.24 Z M215.99,293 L215.99,286.9 L222.27,286.9 L222.27,293 L224.83,293 L224.83,279 L222.27,279 L222.27,284.82 L215.99,284.82 L215.99,279 L213.43,279 L213.43,293 L215.99,293 Z M232.31,293.24 C233.11,293.24 233.826667,293.093333 234.46,292.8 C235.093333,292.506667 235.626667,292.103333 236.06,291.59 C236.493333,291.076667 236.803333,290.506667 236.99,289.88 L236.99,289.88 L234.39,289.88 C234.216667,290.253333 233.953333,290.556667 233.6,290.79 C233.246667,291.023333 232.81,291.14 232.29,291.14 C231.596667,291.14 231.006667,290.92 230.52,290.48 C230.033333,290.04 229.763333,289.433333 229.71,288.66 L229.71,288.66 L237.25,288.66 C237.263333,288.486667 237.273333,288.32 237.28,288.16 C237.286667,288 237.29,287.846667 237.29,287.7 C237.29,286.793333 237.08,285.97 236.66,285.23 C236.24,284.49 235.656667,283.906667 234.91,283.48 C234.163333,283.053333 233.303333,282.84 232.33,282.84 C231.29,282.84 230.386667,283.063333 229.62,283.51 C228.853333,283.956667 228.253333,284.58 227.82,285.38 C227.386667,286.18 227.17,287.093333 227.17,288.12 C227.17,289.133333 227.39,290.026667 227.83,290.8 C228.27,291.573333 228.876667,292.173333 229.65,292.6 C230.423333,293.026667 231.31,293.24 232.31,293.24 Z M234.69,287.06 L229.75,287.06 C229.883333,286.34 230.19,285.803333 230.67,285.45 C231.15,285.096667 231.703333,284.92 232.33,284.92 C232.983333,284.92 233.53,285.113333 233.97,285.5 C234.41,285.886667 234.65,286.406667 234.69,287.06 L234.69,287.06 Z M242.01,293 L242.01,288.48 C242.01,287.72 242.133333,287.126667 242.38,286.7 C242.626667,286.273333 242.97,285.973333 243.41,285.8 C243.85,285.626667 244.35,285.54 244.91,285.54 L244.91,285.54 L245.63,285.54 L245.63,282.84 C244.79,282.84 244.06,283.03 243.44,283.41 C242.82,283.79 242.33,284.3 241.97,284.94 L241.97,284.94 L241.73,283.08 L239.45,283.08 L239.45,293 L242.01,293 Z M252.19,293.24 C252.99,293.24 253.706667,293.093333 254.34,292.8 C254.973333,292.506667 255.506667,292.103333 255.94,291.59 C256.373333,291.076667 256.683333,290.506667 256.87,289.88 L256.87,289.88 L254.27,289.88 C254.096667,290.253333 253.833333,290.556667 253.48,290.79 C253.126667,291.023333 252.69,291.14 252.17,291.14 C251.476667,291.14 250.886667,290.92 250.4,290.48 C249.913333,290.04 249.643333,289.433333 249.59,288.66 L249.59,288.66 L257.13,288.66 C257.143333,288.486667 257.153333,288.32 257.16,288.16 C257.166667,288 257.17,287.846667 257.17,287.7 C257.17,286.793333 256.96,285.97 256.54,285.23 C256.12,284.49 255.536667,283.906667 254.79,283.48 C254.043333,283.053333 253.183333,282.84 252.21,282.84 C251.17,282.84 250.266667,283.063333 249.5,283.51 C248.733333,283.956667 248.133333,284.58 247.7,285.38 C247.266667,286.18 247.05,287.093333 247.05,288.12 C247.05,289.133333 247.27,290.026667 247.71,290.8 C248.15,291.573333 248.756667,292.173333 249.53,292.6 C250.303333,293.026667 251.19,293.24 252.19,293.24 Z M254.57,287.06 L249.63,287.06 C249.763333,286.34 250.07,285.803333 250.55,285.45 C251.03,285.096667 251.583333,284.92 252.21,284.92 C252.863333,284.92 253.41,285.113333 253.85,285.5 C254.29,285.886667 254.53,286.406667 254.57,287.06 L254.57,287.06 Z" id="NoBrewsHere" fill="#090F13" fill-rule="nonzero"></path>
                <g id="_UI-Buttons/_default" transform="translate(73.000000, 366.000000)">
                    <rect id="flat" fill="#D8D8D8" opacity="0" x="0" y="0" width="230" height="50"></rect>
                    <g id="rounded">
                        <use fill="black" fill-opacity="1" filter="url(#filter-8)" xlink:href="#path-7"></use>
                        <use fill="#15212B" fill-rule="evenodd" xlink:href="#path-7"></use>
                    </g>
                    <path d="M74.2354194,30.168 C75.4114194,30.168 76.375086,29.8833333 77.1264194,29.314 C77.8777527,28.7446667 78.3467527,27.956 78.5334194,26.948 L78.5334194,26.948 L76.5594194,26.948 C76.438086,27.452 76.179086,27.8463333 75.7824194,28.131 C75.3857527,28.4156667 74.8607527,28.558 74.2074194,28.558 C73.302086,28.558 72.5927527,28.2523333 72.0794194,27.641 C71.566086,27.0296667 71.3094194,26.1873333 71.3094194,25.114 C71.3094194,24.0406667 71.566086,23.196 72.0794194,22.58 C72.5927527,21.964 73.302086,21.656 74.2074194,21.656 C74.8607527,21.656 75.3857527,21.8076667 75.7824194,22.111 C76.179086,22.4143333 76.438086,22.832 76.5594194,23.364 L76.5594194,23.364 L78.5334194,23.364 C78.3467527,22.3093333 77.8777527,21.4903333 77.1264194,20.907 C76.375086,20.3236667 75.4114194,20.032 74.2354194,20.032 C73.246086,20.032 72.3967527,20.2466667 71.6874194,20.676 C70.978086,21.1053333 70.432086,21.7026667 70.0494194,22.468 C69.6667527,23.2333333 69.4754194,24.1153333 69.4754194,25.114 C69.4754194,26.1126667 69.6667527,26.9923333 70.0494194,27.753 C70.432086,28.5136667 70.978086,29.1063333 71.6874194,29.531 C72.3967527,29.9556667 73.246086,30.168 74.2354194,30.168 Z M81.8654194,30 L81.8654194,26.836 C81.8654194,26.304 81.9517527,25.8886667 82.1244194,25.59 C82.297086,25.2913333 82.5374194,25.0813333 82.8454194,24.96 C83.1534194,24.8386667 83.5034194,24.778 83.8954194,24.778 L83.8954194,24.778 L84.3994194,24.778 L84.3994194,22.888 C83.8114194,22.888 83.3004194,23.021 82.8664194,23.287 C82.4324194,23.553 82.0894194,23.91 81.8374194,24.358 L81.8374194,24.358 L81.6694194,23.056 L80.0734194,23.056 L80.0734194,30 L81.8654194,30 Z M88.9914194,30.168 C89.5514194,30.168 90.053086,30.0653333 90.4964194,29.86 C90.9397527,29.6546667 91.313086,29.3723333 91.6164194,29.013 C91.9197527,28.6536667 92.1367527,28.2546667 92.2674194,27.816 L92.2674194,27.816 L90.4474194,27.816 C90.326086,28.0773333 90.1417527,28.2896667 89.8944194,28.453 C89.647086,28.6163333 89.3414194,28.698 88.9774194,28.698 C88.492086,28.698 88.079086,28.544 87.7384194,28.236 C87.3977527,27.928 87.2087527,27.5033333 87.1714194,26.962 L87.1714194,26.962 L92.4494194,26.962 C92.4587527,26.8406667 92.4657527,26.724 92.4704194,26.612 C92.475086,26.5 92.4774194,26.3926667 92.4774194,26.29 C92.4774194,25.6553333 92.3304194,25.079 92.0364194,24.561 C91.7424194,24.043 91.334086,23.6346667 90.8114194,23.336 C90.2887527,23.0373333 89.6867527,22.888 89.0054194,22.888 C88.2774194,22.888 87.645086,23.0443333 87.1084194,23.357 C86.5717527,23.6696667 86.1517527,24.106 85.8484194,24.666 C85.545086,25.226 85.3934194,25.8653333 85.3934194,26.584 C85.3934194,27.2933333 85.5474194,27.9186667 85.8554194,28.46 C86.1634194,29.0013333 86.588086,29.4213333 87.1294194,29.72 C87.6707527,30.0186667 88.2914194,30.168 88.9914194,30.168 Z M90.6574194,25.842 L87.1994194,25.842 C87.2927527,25.338 87.5074194,24.9623333 87.8434194,24.715 C88.1794194,24.4676667 88.5667527,24.344 89.0054194,24.344 C89.4627527,24.344 89.8454194,24.4793333 90.1534194,24.75 C90.4614194,25.0206667 90.6294194,25.3846667 90.6574194,25.842 L90.6574194,25.842 Z M96.3834194,30.168 C96.962086,30.168 97.4357527,30.0466667 97.8044194,29.804 C98.173086,29.5613333 98.460086,29.2533333 98.6654194,28.88 L98.6654194,28.88 L98.8334194,30 L100.359419,30 L100.359419,25.73 C100.359419,24.8246667 100.074753,24.1246667 99.5054194,23.63 C98.936086,23.1353333 98.1567527,22.888 97.1674194,22.888 C96.5887527,22.888 96.066086,22.9883333 95.5994194,23.189 C95.1327527,23.3896667 94.7524194,23.6766667 94.4584194,24.05 C94.1644194,24.4233333 93.994086,24.862 93.9474194,25.366 L93.9474194,25.366 L95.6974194,25.366 C95.7627527,25.03 95.9307527,24.7756667 96.2014194,24.603 C96.472086,24.4303333 96.7894194,24.344 97.1534194,24.344 C97.5547527,24.344 97.8907527,24.456 98.1614194,24.68 C98.432086,24.904 98.5674194,25.254 98.5674194,25.73 L98.5674194,25.73 L98.5674194,25.898 L96.8034194,25.898 C95.7954194,25.898 95.0394194,26.0986667 94.5354194,26.5 C94.0314194,26.9013333 93.7794194,27.424 93.7794194,28.068 C93.7794194,28.4506667 93.8727527,28.8006667 94.0594194,29.118 C94.246086,29.4353333 94.5307527,29.6896667 94.9134194,29.881 C95.296086,30.0723333 95.786086,30.168 96.3834194,30.168 Z M96.7894194,28.768 C96.4534194,28.768 96.1827527,28.6933333 95.9774194,28.544 C95.772086,28.3946667 95.6694194,28.1846667 95.6694194,27.914 C95.6694194,27.662 95.772086,27.4496667 95.9774194,27.277 C96.1827527,27.1043333 96.5234194,27.018 96.9994194,27.018 L96.9994194,27.018 L98.5254194,27.018 C98.4507527,27.5126667 98.271086,27.928 97.9864194,28.264 C97.7017527,28.6 97.3027527,28.768 96.7894194,28.768 Z M106.379419,30 L106.379419,28.474 L105.511419,28.474 C105.156753,28.474 104.907086,28.411 104.762419,28.285 C104.617753,28.159 104.545419,27.928 104.545419,27.592 L104.545419,27.592 L104.545419,24.554 L106.421419,24.554 L106.421419,23.056 L104.545419,23.056 L104.545419,21.194 L102.963419,21.194 L102.753419,23.056 L101.563419,23.056 L101.563419,24.554 L102.753419,24.554 L102.753419,27.578 C102.753419,28.4833333 102.972753,29.1133333 103.411419,29.468 C103.850086,29.8226667 104.433419,30 105.161419,30 L105.161419,30 L106.379419,30 Z M111.335419,30.168 C111.895419,30.168 112.397086,30.0653333 112.840419,29.86 C113.283753,29.6546667 113.657086,29.3723333 113.960419,29.013 C114.263753,28.6536667 114.480753,28.2546667 114.611419,27.816 L114.611419,27.816 L112.791419,27.816 C112.670086,28.0773333 112.485753,28.2896667 112.238419,28.453 C111.991086,28.6163333 111.685419,28.698 111.321419,28.698 C110.836086,28.698 110.423086,28.544 110.082419,28.236 C109.741753,27.928 109.552753,27.5033333 109.515419,26.962 L109.515419,26.962 L114.793419,26.962 C114.802753,26.8406667 114.809753,26.724 114.814419,26.612 C114.819086,26.5 114.821419,26.3926667 114.821419,26.29 C114.821419,25.6553333 114.674419,25.079 114.380419,24.561 C114.086419,24.043 113.678086,23.6346667 113.155419,23.336 C112.632753,23.0373333 112.030753,22.888 111.349419,22.888 C110.621419,22.888 109.989086,23.0443333 109.452419,23.357 C108.915753,23.6696667 108.495753,24.106 108.192419,24.666 C107.889086,25.226 107.737419,25.8653333 107.737419,26.584 C107.737419,27.2933333 107.891419,27.9186667 108.199419,28.46 C108.507419,29.0013333 108.932086,29.4213333 109.473419,29.72 C110.014753,30.0186667 110.635419,30.168 111.335419,30.168 Z M113.001419,25.842 L109.543419,25.842 C109.636753,25.338 109.851419,24.9623333 110.187419,24.715 C110.523419,24.4676667 110.910753,24.344 111.349419,24.344 C111.806753,24.344 112.189419,24.4793333 112.497419,24.75 C112.805419,25.0206667 112.973419,25.3846667 113.001419,25.842 L113.001419,25.842 Z M122.059419,30.168 C122.638086,30.168 123.111753,30.0466667 123.480419,29.804 C123.849086,29.5613333 124.136086,29.2533333 124.341419,28.88 L124.341419,28.88 L124.509419,30 L126.035419,30 L126.035419,25.73 C126.035419,24.8246667 125.750753,24.1246667 125.181419,23.63 C124.612086,23.1353333 123.832753,22.888 122.843419,22.888 C122.264753,22.888 121.742086,22.9883333 121.275419,23.189 C120.808753,23.3896667 120.428419,23.6766667 120.134419,24.05 C119.840419,24.4233333 119.670086,24.862 119.623419,25.366 L119.623419,25.366 L121.373419,25.366 C121.438753,25.03 121.606753,24.7756667 121.877419,24.603 C122.148086,24.4303333 122.465419,24.344 122.829419,24.344 C123.230753,24.344 123.566753,24.456 123.837419,24.68 C124.108086,24.904 124.243419,25.254 124.243419,25.73 L124.243419,25.73 L124.243419,25.898 L122.479419,25.898 C121.471419,25.898 120.715419,26.0986667 120.211419,26.5 C119.707419,26.9013333 119.455419,27.424 119.455419,28.068 C119.455419,28.4506667 119.548753,28.8006667 119.735419,29.118 C119.922086,29.4353333 120.206753,29.6896667 120.589419,29.881 C120.972086,30.0723333 121.462086,30.168 122.059419,30.168 Z M122.465419,28.768 C122.129419,28.768 121.858753,28.6933333 121.653419,28.544 C121.448086,28.3946667 121.345419,28.1846667 121.345419,27.914 C121.345419,27.662 121.448086,27.4496667 121.653419,27.277 C121.858753,27.1043333 122.199419,27.018 122.675419,27.018 L122.675419,27.018 L124.201419,27.018 C124.126753,27.5126667 123.947086,27.928 123.662419,28.264 C123.377753,28.6 122.978753,28.768 122.465419,28.768 Z M132.909419,30 L132.909419,23.112 L137.515419,30 L139.307419,30 L139.307419,20.2 L137.515419,20.2 L137.515419,27.102 L132.909419,20.2 L131.117419,20.2 L131.117419,30 L132.909419,30 Z M144.501419,30.168 C145.164086,30.168 145.766086,30.014 146.307419,29.706 C146.848753,29.398 147.275753,28.971 147.588419,28.425 C147.901086,27.879 148.057419,27.2466667 148.057419,26.528 C148.057419,25.8093333 147.901086,25.177 147.588419,24.631 C147.275753,24.085 146.851086,23.658 146.314419,23.35 C145.777753,23.042 145.178086,22.888 144.515419,22.888 C143.843419,22.888 143.239086,23.042 142.702419,23.35 C142.165753,23.658 141.738753,24.085 141.421419,24.631 C141.104086,25.177 140.945419,25.8093333 140.945419,26.528 C140.945419,27.2466667 141.101753,27.879 141.414419,28.425 C141.727086,28.971 142.151753,29.398 142.688419,29.706 C143.225086,30.014 143.829419,30.168 144.501419,30.168 Z M144.501419,28.614 C144.034753,28.614 143.631086,28.439 143.290419,28.089 C142.949753,27.739 142.779419,27.2186667 142.779419,26.528 C142.779419,25.8373333 142.949753,25.317 143.290419,24.967 C143.631086,24.617 144.039419,24.442 144.515419,24.442 C144.972753,24.442 145.374086,24.617 145.719419,24.967 C146.064753,25.317 146.237419,25.8373333 146.237419,26.528 C146.237419,27.2186667 146.064753,27.739 145.719419,28.089 C145.374086,28.439 144.968086,28.614 144.501419,28.614 Z M153.965419,30 L153.965419,28.474 L153.097419,28.474 C152.742753,28.474 152.493086,28.411 152.348419,28.285 C152.203753,28.159 152.131419,27.928 152.131419,27.592 L152.131419,27.592 L152.131419,24.554 L154.007419,24.554 L154.007419,23.056 L152.131419,23.056 L152.131419,21.194 L150.549419,21.194 L150.339419,23.056 L149.149419,23.056 L149.149419,24.554 L150.339419,24.554 L150.339419,27.578 C150.339419,28.4833333 150.558753,29.1133333 150.997419,29.468 C151.436086,29.8226667 152.019419,30 152.747419,30 L152.747419,30 L153.965419,30 Z M158.921419,30.168 C159.481419,30.168 159.983086,30.0653333 160.426419,29.86 C160.869753,29.6546667 161.243086,29.3723333 161.546419,29.013 C161.849753,28.6536667 162.066753,28.2546667 162.197419,27.816 L162.197419,27.816 L160.377419,27.816 C160.256086,28.0773333 160.071753,28.2896667 159.824419,28.453 C159.577086,28.6163333 159.271419,28.698 158.907419,28.698 C158.422086,28.698 158.009086,28.544 157.668419,28.236 C157.327753,27.928 157.138753,27.5033333 157.101419,26.962 L157.101419,26.962 L162.379419,26.962 C162.388753,26.8406667 162.395753,26.724 162.400419,26.612 C162.405086,26.5 162.407419,26.3926667 162.407419,26.29 C162.407419,25.6553333 162.260419,25.079 161.966419,24.561 C161.672419,24.043 161.264086,23.6346667 160.741419,23.336 C160.218753,23.0373333 159.616753,22.888 158.935419,22.888 C158.207419,22.888 157.575086,23.0443333 157.038419,23.357 C156.501753,23.6696667 156.081753,24.106 155.778419,24.666 C155.475086,25.226 155.323419,25.8653333 155.323419,26.584 C155.323419,27.2933333 155.477419,27.9186667 155.785419,28.46 C156.093419,29.0013333 156.518086,29.4213333 157.059419,29.72 C157.600753,30.0186667 158.221419,30.168 158.921419,30.168 Z M160.587419,25.842 L157.129419,25.842 C157.222753,25.338 157.437419,24.9623333 157.773419,24.715 C158.109419,24.4676667 158.496753,24.344 158.935419,24.344 C159.392753,24.344 159.775419,24.4793333 160.083419,24.75 C160.391419,25.0206667 160.559419,25.3846667 160.587419,25.842 L160.587419,25.842 Z" id="CreateaNote" fill="#FFFFFF" fill-rule="nonzero"></path>
                </g>
            </g>
        </g>
    </g>
</svg>