<?xml version="1.0" encoding="UTF-8"?>
<svg width="218px" height="107px" viewBox="0 0 218 107" version="1.1" xmlns="http://www.w3.org/2000/svg" xmlns:xlink="http://www.w3.org/1999/xlink">
    <title>logo_horizontal</title>
    <defs>
        <path d="M116,19 C127.045695,19 136,27.954305 136,39 C136,50.045695 127.045695,59 116,59 C104.954305,59 96,50.045695 96,39 C96,27.954305 104.954305,19 116,19 Z M87,19 C89.7614237,19 92,21.2385763 92,24 C92,26.7614237 89.7614237,29 87,29 C84.2385763,29 82,26.7614237 82,24 C82,21.2385763 84.2385763,19 87,19 Z M107,5 C109.761424,5 112,7.23857625 112,10 C112,12.7614237 109.761424,15 107,15 C104.238576,15 102,12.7614237 102,10 C102,7.23857625 104.238576,5 107,5 Z M89,0 C91.7614237,0 94,2.23857625 94,5 C94,7.76142375 91.7614237,10 89,10 C86.2385763,10 84,7.76142375 84,5 C84,2.23857625 86.2385763,0 89,0 Z" id="path-1"></path>
        <filter x="-12.0%" y="-5.9%" width="120.4%" height="118.6%" filterUnits="objectBoundingBox" id="filter-2">
            <feOffset dx="-1" dy="2" in="SourceAlpha" result="shadowOffsetOuter1"></feOffset>
            <feGaussianBlur stdDeviation="1.5" in="shadowOffsetOuter1" result="shadowBlurOuter1"></feGaussianBlur>
            <feComposite in="shadowBlurOuter1" in2="SourceAlpha" operator="out" result="shadowBlurOuter1"></feComposite>
            <feColorMatrix values="0 0 0 0 0.290196078   0 0 0 0 0.290196078   0 0 0 0 0.290196078  0 0 0 0.1 0" type="matrix" in="shadowBlurOuter1"></feColorMatrix>
        </filter>
    </defs>
    <g id="coffee_app" stroke="none" stroke-width="1" fill="none" fill-rule="evenodd">
        <g id="coffee_0.1" transform="translate(-79.000000, -202.000000)">
            <g id="Group" transform="translate(79.000000, 203.000000)">
                <path d="M13.068,105.856 C20.232,105.856 23.904,101.104 24.876,97.18 L20.232,95.776 C19.548,98.152 17.424,100.996 13.068,100.996 C8.964,100.996 5.148,98.008 5.148,92.572 C5.148,86.776 9.18,84.04 12.996,84.04 C17.424,84.04 19.404,86.74 20.016,89.188 L24.696,87.712 C23.688,83.572 20.052,79.252 12.996,79.252 C6.156,79.252 0,84.436 0,92.572 C0,100.708 5.94,105.856 13.068,105.856 Z M36.0964706,105.856 C41.3884706,105.856 45.3844706,101.896 45.3844706,96.46 C45.3844706,90.988 41.3884706,87.064 36.0964706,87.064 C30.8044706,87.064 26.8084706,90.988 26.8084706,96.46 C26.8084706,101.896 30.8044706,105.856 36.0964706,105.856 Z M36.0964706,101.5 C33.7564706,101.5 31.5964706,99.772 31.5964706,96.46 C31.5964706,93.112 33.7564706,91.42 36.0964706,91.42 C38.4364706,91.42 40.5964706,93.112 40.5964706,96.46 C40.5964706,99.808 38.4364706,101.5 36.0964706,101.5 Z M54.9849412,105.316 L54.9849412,91.708 L61.8249412,91.708 L61.8249412,105.316 L66.6129412,105.316 L66.6129412,91.708 L70.6089412,91.708 L70.6089412,87.604 L66.6129412,87.604 L66.6129412,85.66 C66.6489412,83.68 68.0889412,83.212 69.1329412,83.212 C69.9249412,83.212 70.3929412,83.32 70.6449412,83.392 L70.6449412,79.36 C70.2489412,79.18 69.2769412,79 68.2689412,79 C64.3449412,79 61.8249412,81.592 61.8249412,85.588 L61.8249412,87.604 L54.9849412,87.604 L54.9849412,85.66 C54.9849412,83.68 56.4249412,83.212 57.4689412,83.212 C58.2609412,83.212 58.7289412,83.32 58.9809412,83.392 L58.9809412,79.36 C58.5849412,79.18 57.6129412,79 56.6049412,79 C52.6809412,79 50.1609412,81.592 50.1609412,85.588 L50.1609412,87.604 L47.2089412,87.604 L47.2089412,91.708 L50.1609412,91.708 L50.1609412,105.316 L54.9849412,105.316 Z M81.6494118,105.856 C86.0054118,105.856 88.8134118,103.3 89.7134118,100.24 L85.7174118,99.052 C85.1414118,100.636 83.9174118,101.752 81.6854118,101.752 C79.3094118,101.752 77.3294118,100.06 77.2214118,97.72 L89.8934118,97.72 C89.8934118,97.648 89.9654118,96.928 89.9654118,96.244 C89.9654118,90.556 86.6894118,87.064 81.2174118,87.064 C76.6814118,87.064 72.5054118,90.736 72.5054118,96.388 C72.5054118,102.364 76.7894118,105.856 81.6494118,105.856 Z M85.2494118,94.444 L77.3294118,94.444 C77.4374118,92.824 78.8054118,90.952 81.2894118,90.952 C84.0254118,90.952 85.1774118,92.68 85.2494118,94.444 Z M101.653882,105.856 C106.009882,105.856 108.817882,103.3 109.717882,100.24 L105.721882,99.052 C105.145882,100.636 103.921882,101.752 101.689882,101.752 C99.3138824,101.752 97.3338824,100.06 97.2258824,97.72 L109.897882,97.72 C109.897882,97.648 109.969882,96.928 109.969882,96.244 C109.969882,90.556 106.693882,87.064 101.221882,87.064 C96.6858824,87.064 92.5098824,90.736 92.5098824,96.388 C92.5098824,102.364 96.7938824,105.856 101.653882,105.856 Z M105.253882,94.444 L97.3338824,94.444 C97.4418824,92.824 98.8098824,90.952 101.293882,90.952 C104.029882,90.952 105.181882,92.68 105.253882,94.444 Z M128.162824,105.316 L128.162824,87.208 L139.754824,105.316 L144.974824,105.316 L144.974824,79.792 L140.006824,79.792 L140.006824,96.676 L129.386824,79.792 L123.194824,79.792 L123.194824,105.316 L128.162824,105.316 Z M158.391294,105.856 C163.683294,105.856 167.679294,101.896 167.679294,96.46 C167.679294,90.988 163.683294,87.064 158.391294,87.064 C153.099294,87.064 149.103294,90.988 149.103294,96.46 C149.103294,101.896 153.099294,105.856 158.391294,105.856 Z M158.391294,101.5 C156.051294,101.5 153.891294,99.772 153.891294,96.46 C153.891294,93.112 156.051294,91.42 158.391294,91.42 C160.731294,91.42 162.891294,93.112 162.891294,96.46 C162.891294,99.808 160.731294,101.5 158.391294,101.5 Z M178.251765,105.568 C179.655765,105.568 180.519765,105.316 180.951765,105.136 L180.951765,101.176 C180.699765,101.248 180.051765,101.32 179.475765,101.32 C178.107765,101.32 177.387765,100.816 177.387765,99.268 L177.387765,91.852 L180.951765,91.852 L180.951765,87.604 L177.387765,87.604 L177.387765,82.312 L173.067765,82.312 L173.067765,84.796 C173.067765,86.38 172.203765,87.604 170.331765,87.604 L169.431765,87.604 L169.431765,91.852 L172.635765,91.852 L172.635765,100.096 C172.635765,103.516 174.795765,105.568 178.251765,105.568 Z M192.748235,105.856 C197.104235,105.856 199.912235,103.3 200.812235,100.24 L196.816235,99.052 C196.240235,100.636 195.016235,101.752 192.784235,101.752 C190.408235,101.752 188.428235,100.06 188.320235,97.72 L200.992235,97.72 C200.992235,97.648 201.064235,96.928 201.064235,96.244 C201.064235,90.556 197.788235,87.064 192.316235,87.064 C187.780235,87.064 183.604235,90.736 183.604235,96.388 C183.604235,102.364 187.888235,105.856 192.748235,105.856 Z M196.348235,94.444 L188.428235,94.444 C188.536235,92.824 189.904235,90.952 192.388235,90.952 C195.124235,90.952 196.276235,92.68 196.348235,94.444 Z M210.808706,105.856 C215.452706,105.856 217.684706,102.904 217.684706,100.024 C217.684706,97.432 215.920706,95.308 212.428706,94.588 L209.908706,94.048 C208.936706,93.868 208.288706,93.328 208.288706,92.464 C208.288706,91.456 209.296706,90.7 210.556706,90.7 C212.572706,90.7 213.328706,92.032 213.472706,93.076 L217.468706,92.176 C217.252706,90.268 215.560706,87.064 210.520706,87.064 C206.704706,87.064 203.896706,89.692 203.896706,92.86 C203.896706,95.344 205.444706,97.396 208.864706,98.152 L211.204706,98.692 C212.572706,98.98 213.112706,99.628 213.112706,100.42 C213.112706,101.356 212.356706,102.184 210.772706,102.184 C208.684706,102.184 207.640706,100.888 207.532706,99.484 L203.428706,100.384 C203.644706,102.4 205.480706,105.856 210.808706,105.856 Z" id="CoffeeNotes" fill="#090F13"></path>
                <g id="Combined-Shape" fill-rule="nonzero">
                    <use fill="black" fill-opacity="1" filter="url(#filter-2)" xlink:href="#path-1"></use>
                    <use fill-opacity="0.95" fill="#090F13" xlink:href="#path-1"></use>
                </g>
            </g>
        </g>
    </g>
</svg>