<?xml version="1.0" encoding="UTF-8"?>
<svg width="219px" height="34px" viewBox="0 0 219 34" version="1.1" xmlns="http://www.w3.org/2000/svg" xmlns:xlink="http://www.w3.org/1999/xlink">
    <title>logo_flat</title>
    <defs>
        <path d="M15.3909465,8.93162393 C20.3910553,8.93162393 24.4444444,13.1409126 24.4444444,18.3333333 C24.4444444,23.5257541 20.3910553,27.7350427 15.3909465,27.7350427 C10.3908377,27.7350427 6.33744856,23.5257541 6.33744856,18.3333333 C6.33744856,13.1409126 10.3908377,8.93162393 15.3909465,8.93162393 Z M2.26337449,8.93162393 C3.5134017,8.93162393 4.52674897,9.9839461 4.52674897,11.2820513 C4.52674897,12.5801565 3.5134017,13.6324786 2.26337449,13.6324786 C1.01334727,13.6324786 0,12.5801565 0,11.2820513 C0,9.9839461 1.01334727,8.93162393 2.26337449,8.93162393 Z M11.3168724,2.35042735 C12.5668996,2.35042735 13.5802469,3.40274952 13.5802469,4.7008547 C13.5802469,5.99895988 12.5668996,7.05128205 11.3168724,7.05128205 C10.0668452,7.05128205 9.05349794,5.99895988 9.05349794,4.7008547 C9.05349794,3.40274952 10.0668452,2.35042735 11.3168724,2.35042735 Z M3.16872428,0 C4.41875149,0 5.43209877,1.05232217 5.43209877,2.35042735 C5.43209877,3.64853253 4.41875149,4.7008547 3.16872428,4.7008547 C1.91869707,4.7008547 0.905349794,3.64853253 0.905349794,2.35042735 C0.905349794,1.05232217 1.91869707,0 3.16872428,0 Z" id="path-1"></path>
        <filter x="-26.6%" y="-12.6%" width="145.0%" height="139.7%" filterUnits="objectBoundingBox" id="filter-2">
            <feOffset dx="-1" dy="2" in="SourceAlpha" result="shadowOffsetOuter1"></feOffset>
            <feGaussianBlur stdDeviation="1.5" in="shadowOffsetOuter1" result="shadowBlurOuter1"></feGaussianBlur>
            <feComposite in="shadowBlurOuter1" in2="SourceAlpha" operator="out" result="shadowBlurOuter1"></feComposite>
            <feColorMatrix values="0 0 0 0 0.290196078   0 0 0 0 0.290196078   0 0 0 0 0.290196078  0 0 0 0.1 0" type="matrix" in="shadowBlurOuter1"></feColorMatrix>
        </filter>
    </defs>
    <g id="coffee_app" stroke="none" stroke-width="1" fill="none" fill-rule="evenodd">
        <g id="coffee_2.0" transform="translate(-22.000000, -56.000000)" fill-rule="nonzero">
            <g id="logo_flat" transform="translate(26.000000, 57.000000)">
                <path d="M47.3146667,26.9550769 C53.152,26.9550769 56.144,22.9341538 56.936,19.6138462 L53.152,18.4258462 C52.5946667,20.4363077 50.864,22.8427692 47.3146667,22.8427692 C43.9706667,22.8427692 40.8613333,20.3144615 40.8613333,15.7147692 C40.8613333,10.8104615 44.1466667,8.49538462 47.256,8.49538462 C50.864,8.49538462 52.4773333,10.78 52.976,12.8513846 L56.7893333,11.6024615 C55.968,8.09938462 53.0053333,4.444 47.256,4.444 C41.6826667,4.444 36.6666667,8.83046154 36.6666667,15.7147692 C36.6666667,22.5990769 41.5066667,26.9550769 47.3146667,26.9550769 Z M66.0786057,26.9550769 C70.3906057,26.9550769 73.6466057,23.6043077 73.6466057,19.0046154 C73.6466057,14.3744615 70.3906057,11.0541538 66.0786057,11.0541538 C61.7666057,11.0541538 58.5106057,14.3744615 58.5106057,19.0046154 C58.5106057,23.6043077 61.7666057,26.9550769 66.0786057,26.9550769 Z M66.0786057,23.2692308 C64.171939,23.2692308 62.411939,21.8070769 62.411939,19.0046154 C62.411939,16.1716923 64.171939,14.74 66.0786057,14.74 C67.9852723,14.74 69.7452723,16.1716923 69.7452723,19.0046154 C69.7452723,21.8375385 67.9852723,23.2692308 66.0786057,23.2692308 Z M81.4692113,26.4981538 L81.4692113,14.9836923 L87.0425447,14.9836923 L87.0425447,26.4981538 L90.943878,26.4981538 L90.943878,14.9836923 L94.199878,14.9836923 L94.199878,11.5110769 L90.943878,11.5110769 L90.943878,9.86615385 C90.9732113,8.19076923 92.1465447,7.79476923 92.9972113,7.79476923 C93.6425447,7.79476923 94.023878,7.88615385 94.2292113,7.94707692 L94.2292113,4.53538462 C93.9065447,4.38307692 93.1145447,4.23076923 92.2932113,4.23076923 C89.095878,4.23076923 87.0425447,6.424 87.0425447,9.80523077 L87.0425447,11.5110769 L81.4692113,11.5110769 L81.4692113,9.86615385 C81.4692113,8.19076923 82.6425447,7.79476923 83.4932113,7.79476923 C84.1385447,7.79476923 84.519878,7.88615385 84.7252113,7.94707692 L84.7252113,4.53538462 C84.4025447,4.38307692 83.6105447,4.23076923 82.7892113,4.23076923 C79.591878,4.23076923 77.5385447,6.424 77.5385447,9.80523077 L77.5385447,11.5110769 L75.1332113,11.5110769 L75.1332113,14.9836923 L77.5385447,14.9836923 L77.5385447,26.4981538 L81.4692113,26.4981538 Z M103.195817,26.9550769 C106.74515,26.9550769 109.03315,24.7923077 109.766484,22.2030769 L106.510484,21.1978462 C106.04115,22.5381538 105.043817,23.4824615 103.22515,23.4824615 C101.28915,23.4824615 99.675817,22.0507692 99.587817,20.0707692 L109.91315,20.0707692 C109.91315,20.0098462 109.971817,19.4006154 109.971817,18.8218462 C109.971817,14.0089231 107.302484,11.0541538 102.843817,11.0541538 C99.147817,11.0541538 95.7451504,14.1612308 95.7451504,18.9436923 C95.7451504,24.0003077 99.235817,26.9550769 103.195817,26.9550769 Z M106.12915,17.2987692 L99.675817,17.2987692 C99.763817,15.928 100.878484,14.344 102.902484,14.344 C105.131817,14.344 106.070484,15.8061538 106.12915,17.2987692 Z M119.495756,26.9550769 C123.045089,26.9550769 125.333089,24.7923077 126.066423,22.2030769 L122.810423,21.1978462 C122.341089,22.5381538 121.343756,23.4824615 119.525089,23.4824615 C117.589089,23.4824615 115.975756,22.0507692 115.887756,20.0707692 L126.213089,20.0707692 C126.213089,20.0098462 126.271756,19.4006154 126.271756,18.8218462 C126.271756,14.0089231 123.602423,11.0541538 119.143756,11.0541538 C115.447756,11.0541538 112.045089,14.1612308 112.045089,18.9436923 C112.045089,24.0003077 115.535756,26.9550769 119.495756,26.9550769 Z M122.429089,17.2987692 L115.975756,17.2987692 C116.063756,15.928 117.178423,14.344 119.202423,14.344 C121.431756,14.344 122.370423,15.8061538 122.429089,17.2987692 Z M141.095634,26.4981538 L141.095634,11.176 L150.540967,26.4981538 L154.794301,26.4981538 L154.794301,4.90092308 L150.746301,4.90092308 L150.746301,19.1873846 L142.092967,4.90092308 L137.047634,4.90092308 L137.047634,26.4981538 L141.095634,26.4981538 Z M165.72624,26.9550769 C170.03824,26.9550769 173.29424,23.6043077 173.29424,19.0046154 C173.29424,14.3744615 170.03824,11.0541538 165.72624,11.0541538 C161.41424,11.0541538 158.15824,14.3744615 158.15824,19.0046154 C158.15824,23.6043077 161.41424,26.9550769 165.72624,26.9550769 Z M165.72624,23.2692308 C163.819573,23.2692308 162.059573,21.8070769 162.059573,19.0046154 C162.059573,16.1716923 163.819573,14.74 165.72624,14.74 C167.632906,14.74 169.392906,16.1716923 169.392906,19.0046154 C169.392906,21.8375385 167.632906,23.2692308 165.72624,23.2692308 Z M181.908845,26.7113846 C183.052845,26.7113846 183.756845,26.4981538 184.108845,26.3458462 L184.108845,22.9950769 C183.903512,23.056 183.375512,23.1169231 182.906179,23.1169231 C181.791512,23.1169231 181.204845,22.6904615 181.204845,21.3806154 L181.204845,15.1055385 L184.108845,15.1055385 L184.108845,11.5110769 L181.204845,11.5110769 L181.204845,7.03323077 L177.684845,7.03323077 L177.684845,9.13507692 C177.684845,10.4753846 176.980845,11.5110769 175.455512,11.5110769 L174.722179,11.5110769 L174.722179,15.1055385 L177.332845,15.1055385 L177.332845,22.0812308 C177.332845,24.9750769 179.092845,26.7113846 181.908845,26.7113846 Z M193.720784,26.9550769 C197.270118,26.9550769 199.558118,24.7923077 200.291451,22.2030769 L197.035451,21.1978462 C196.566118,22.5381538 195.568784,23.4824615 193.750118,23.4824615 C191.814118,23.4824615 190.200784,22.0507692 190.112784,20.0707692 L200.438118,20.0707692 C200.438118,20.0098462 200.496784,19.4006154 200.496784,18.8218462 C200.496784,14.0089231 197.827451,11.0541538 193.368784,11.0541538 C189.672784,11.0541538 186.270118,14.1612308 186.270118,18.9436923 C186.270118,24.0003077 189.760784,26.9550769 193.720784,26.9550769 Z M196.654118,17.2987692 L190.200784,17.2987692 C190.288784,15.928 191.403451,14.344 193.427451,14.344 C195.656784,14.344 196.595451,15.8061538 196.654118,17.2987692 Z M208.436723,26.9550769 C212.220723,26.9550769 214.03939,24.4572308 214.03939,22.0203077 C214.03939,19.8270769 212.602057,18.0298462 209.756723,17.4206154 L207.70339,16.9636923 C206.91139,16.8113846 206.38339,16.3544615 206.38339,15.6233846 C206.38339,14.7704615 207.204723,14.1307692 208.23139,14.1307692 C209.874057,14.1307692 210.490057,15.2578462 210.60739,16.1412308 L213.86339,15.3796923 C213.68739,13.7652308 212.308723,11.0541538 208.202057,11.0541538 C205.092723,11.0541538 202.804723,13.2778462 202.804723,15.9584615 C202.804723,18.0603077 204.066057,19.7966154 206.852723,20.4363077 L208.75939,20.8932308 C209.874057,21.1369231 210.314057,21.6852308 210.314057,22.3553846 C210.314057,23.1473846 209.698057,23.848 208.40739,23.848 C206.706057,23.848 205.85539,22.7513846 205.76739,21.5633846 L202.42339,22.3249231 C202.59939,24.0307692 204.09539,26.9550769 208.436723,26.9550769 Z" id="CoffeeNotes" fill="#090F13"></path>
                <g id="Combined-Shape">
                    <use fill="black" fill-opacity="1" filter="url(#filter-2)" xlink:href="#path-1"></use>
                    <use fill-opacity="0.95" fill="#090F13" xlink:href="#path-1"></use>
                </g>
            </g>
        </g>
    </g>
</svg>